<svg xmlns="http://www.w3.org/2000/svg" xmlns:xlink="http://www.w3.org/1999/xlink" width="24" height="24" viewBox="0 0 24 24"><defs><clipPath id="a"><rect width="24" height="24" transform="translate(0)" fill="#b9e9fa" stroke="#141b18" stroke-width="1"/></clipPath></defs><g transform="translate(0)" clip-path="url(#a)"><path d="M4.728,10.831A.964.964,0,0,1,5.7,9.867L7.3,9.872a.966.966,0,0,1,.965.966v6.074c.181-.054.413-.111.667-.17a.8.8,0,0,0,.62-.783V8.424a.966.966,0,0,1,.965-.966H12.13a.966.966,0,0,1,.965.966v6.993s.4-.163.8-.329a.806.806,0,0,0,.492-.742V6.009a.965.965,0,0,1,.965-.966h1.609a.966.966,0,0,1,.966.966v6.866a18.874,18.874,0,0,0,3.931-3.691A1.622,1.622,0,0,0,22.1,7.671a11.365,11.365,0,1,0-20.589,9.4,1.437,1.437,0,0,0,1.371.711c.3-.027.683-.065,1.134-.118a.8.8,0,0,0,.713-.8V10.831" transform="translate(0.625 0.625)" fill="#b9e9fa"/><path d="M2.753,18.282a1.938,1.938,0,0,1-1.675-.966A11.885,11.885,0,0,1,3.047,2.93,11.837,11.837,0,0,1,22.572,7.508a2.122,2.122,0,0,1-.323,1.98,19.144,19.144,0,0,1-4.034,3.791l-.793.575V6.009a.463.463,0,0,0-.136-.329.469.469,0,0,0-.329-.136H15.348a.466.466,0,0,0-.465.466v8.338a1.306,1.306,0,0,1-.8,1.2c-.392.165-.8.33-.8.332l-.688.279V8.424a.466.466,0,0,0-.466-.466H10.521a.468.468,0,0,0-.329.136.463.463,0,0,0-.136.329v7.535a1.3,1.3,0,0,1-1.006,1.27c-.2.047-.453.108-.64.163l-.642.19V10.838a.466.466,0,0,0-.465-.466l-1.607-.005a.464.464,0,0,0-.467.465h0V16.86a1.3,1.3,0,0,1-1.157,1.3c-.4.047-.79.087-1.147.119Q2.839,18.282,2.753,18.282ZM11.363.5A10.911,10.911,0,0,0,.5,11.376a10.857,10.857,0,0,0,1.443,5.441.937.937,0,0,0,.893.462c.348-.031.724-.07,1.12-.116a.3.3,0,0,0,.271-.3V10.831h0A1.464,1.464,0,0,1,5.7,9.367L7.3,9.372a1.466,1.466,0,0,1,1.464,1.466v5.43l.053-.012a.3.3,0,0,0,.234-.3V8.424A1.466,1.466,0,0,1,10.52,6.958H12.13A1.466,1.466,0,0,1,13.6,8.424V14.67l.1-.042a.306.306,0,0,0,.186-.282V6.009a1.465,1.465,0,0,1,1.465-1.466h1.609a1.466,1.466,0,0,1,1.466,1.466v5.863A16.988,16.988,0,0,0,21.456,8.88a1.122,1.122,0,0,0,.17-1.047A10.853,10.853,0,0,0,11.511.5Z" transform="translate(0.625 0.625)" fill="#141b18"/><path d="M5.363,22.088a11.369,11.369,0,0,0,18.057-9.2c0-.262-.012-.521-.03-.778-4.154,6.2-11.824,9.1-18.027,9.977" transform="translate(-0.045 -0.889)" fill="#b9e9fa"/><path d="M12.053,24.764q-.468,0-.937-.037a11.861,11.861,0,0,1-6.046-2.235l.294-.4-.07-.495c3.7-.527,12.837-2.532,17.682-9.761l.815-1.216.1,1.46c.021.309.031.568.031.812A11.87,11.87,0,0,1,12.053,24.764ZM6.732,22.372a10.87,10.87,0,0,0,16.163-8.741,22.2,22.2,0,0,1-7.525,5.908A32.445,32.445,0,0,1,6.732,22.372Z" transform="translate(-0.045 -0.889)" fill="#141b18"/></g></svg>