<?xml version="1.0" encoding="UTF-8"?>
<!DOCTYPE svg PUBLIC "-//W3C//DTD SVG 1.1//EN" "http://www.w3.org/Graphics/SVG/1.1/DTD/svg11.dtd">
<svg xmlns="http://www.w3.org/2000/svg" version="1.1" width="813px" height="418px" style="shape-rendering:geometricPrecision; text-rendering:geometricPrecision; image-rendering:optimizeQuality; fill-rule:evenodd; clip-rule:evenodd" xmlns:xlink="http://www.w3.org/1999/xlink">
<g><path style="opacity:0.875" fill="#070707" d="M 192.5,20.5 C 191.457,22.8519 190.124,23.0185 188.5,21C 185.5,20.8333 182.5,20.6667 179.5,20.5C 169.908,21.8592 160.241,22.6925 150.5,23C 149.122,24.7134 147.455,26.0467 145.5,27C 141.514,27.4988 137.514,27.6655 133.5,27.5C 127.891,28.9801 122.557,30.9801 117.5,33.5C 115.126,34.6861 112.792,34.6861 110.5,33.5C 110.953,32.5416 111.619,31.7083 112.5,31C 117.331,29.3895 121.997,27.3895 126.5,25C 132.436,23.8613 138.436,23.1946 144.5,23C 150.2,17.1212 156.866,15.9545 164.5,19.5C 165.5,19 166.5,18.5 167.5,18C 175.5,17.3333 183.5,17.3333 191.5,18C 192.252,18.6708 192.586,19.5041 192.5,20.5 Z"/></g>
<g><path style="opacity:1" fill="#ece1ed" d="M 192.5,20.5 C 194.379,21.3414 196.379,21.6747 198.5,21.5C 200.797,24.5388 202.631,27.8721 204,31.5C 213.144,39.3067 222.311,47.14 231.5,55C 237.854,57.8404 243.854,61.1737 249.5,65C 252.5,65.3333 255.5,65.6667 258.5,66C 263.055,70.1874 268.389,72.854 274.5,74C 278.357,77.8486 283.023,79.8486 288.5,80C 291.826,84.2925 295.326,88.4592 299,92.5C 300.147,97.4657 300.98,102.466 301.5,107.5C 301.908,110.599 300.741,112.933 298,114.5C 296.066,118.804 294.233,123.137 292.5,127.5C 289.018,123.212 286.185,118.545 284,113.5C 283.581,114.672 282.915,115.672 282,116.5C 281.667,120.833 281.333,125.167 281,129.5C 280,132.833 279,136.167 278,139.5C 275.065,134.808 272.231,130.142 269.5,125.5C 269.665,121.818 269.499,118.152 269,114.5C 266.212,112.588 264.879,109.921 265,106.5C 258.471,96.4617 249.971,88.795 239.5,83.5C 239.67,82.1779 239.337,81.0113 238.5,80C 231.06,75.723 224.06,70.723 217.5,65C 210.648,58.4234 203.648,52.09 196.5,46C 192.716,44.7399 189.383,42.7399 186.5,40C 180.222,38.4914 174.222,36.4914 168.5,34C 160.022,33.9758 152.022,35.9758 144.5,40C 142.408,42.7971 140.408,45.6304 138.5,48.5C 134.649,45.8392 130.316,44.8392 125.5,45.5C 126.458,44.0384 127.624,42.7051 129,41.5C 130.439,36.7971 131.939,32.1304 133.5,27.5C 137.514,27.6655 141.514,27.4988 145.5,27C 147.455,26.0467 149.122,24.7134 150.5,23C 160.241,22.6925 169.908,21.8592 179.5,20.5C 182.5,20.6667 185.5,20.8333 188.5,21C 190.124,23.0185 191.457,22.8519 192.5,20.5 Z"/></g>
<g><path style="opacity:0.861" fill="#070707" d="M 204.5,21.5 C 212.961,20.5985 220.961,22.0985 228.5,26C 256.555,31.7451 279.888,45.4118 298.5,67C 303.263,69.7976 307.763,72.9643 312,76.5C 314.52,81.7163 316.853,87.0496 319,92.5C 321.901,95.3119 324.568,98.3119 327,101.5C 328.792,106.367 330.125,111.367 331,116.5C 333.333,120.167 335.667,123.833 338,127.5C 344.473,149.132 346.14,171.132 343,193.5C 342.617,194.056 342.117,194.389 341.5,194.5C 340.235,193.486 339.569,191.986 339.5,190C 341.084,175.3 340.75,160.8 338.5,146.5C 338.142,143.311 337.475,140.311 336.5,137.5C 336.477,135.073 335.977,132.74 335,130.5C 331.859,125.86 329.026,121.193 326.5,116.5C 326.737,107.641 323.237,100.641 316,95.5C 313.804,90.5797 311.804,85.5797 310,80.5C 305.068,75.5653 299.568,71.3986 293.5,68C 279.42,52.1229 262.42,40.4562 242.5,33C 236.91,31.6296 231.243,30.6296 225.5,30C 219.143,26.9102 212.477,24.7435 205.5,23.5C 205.137,22.8165 204.804,22.1499 204.5,21.5 Z"/></g>
<g><path style="opacity:1" fill="#e8dae9" d="M 133.5,27.5 C 131.939,32.1304 130.439,36.7971 129,41.5C 127.624,42.7051 126.458,44.0384 125.5,45.5C 123.897,46.5964 122.397,47.9297 121,49.5C 118.38,55.9136 114.88,61.747 110.5,67C 99.504,69.4861 90.504,74.9861 83.5,83.5C 74.9471,91.4273 66.4471,99.094 58,106.5C 54.8148,113.023 50.8148,119.023 46,124.5C 45.8295,126.715 45.1628,128.715 44,130.5C 43.3341,141.169 44.8341,151.502 48.5,161.5C 49.3295,166.802 49.8295,172.136 50,177.5C 51.756,178.421 51.9227,179.588 50.5,181C 52.7935,187.482 54.9602,193.982 57,200.5C 58.9838,218.822 60.8171,237.155 62.5,255.5C 63.8385,263.843 66.1718,271.843 69.5,279.5C 72.5348,279.521 74.8681,280.854 76.5,283.5C 77.1189,286.032 78.1189,288.365 79.5,290.5C 80.8333,290.833 82.1667,291.167 83.5,291.5C 89.5703,290.378 95.5703,289.045 101.5,287.5C 102.647,287.818 103.481,288.484 104,289.5C 116.823,281.506 129.989,274.173 143.5,267.5C 144.5,266.833 145.5,266.167 146.5,265.5C 149.187,265.336 151.854,265.503 154.5,266C 147.716,271.493 141.049,277.159 134.5,283C 137.58,283.766 140.58,284.766 143.5,286C 141.667,287.833 139.833,289.667 138,291.5C 133.667,300.5 129.333,309.5 125,318.5C 124.292,319.381 123.458,320.047 122.5,320.5C 109.23,316.431 96.2304,311.598 83.5,306C 79.7178,302.22 75.3844,299.22 70.5,297C 67.9426,294.108 65.776,290.941 64,287.5C 62.2691,285.383 60.1024,283.883 57.5,283C 52.6058,277.279 47.6058,271.779 42.5,266.5C 40.8039,263.15 39.1373,259.817 37.5,256.5C 38.1239,256.083 38.4573,255.416 38.5,254.5C 36.6015,248.226 34.1015,242.226 31,236.5C 29.9887,235.663 28.8221,235.33 27.5,235.5C 26.4967,232.15 25.4967,228.817 24.5,225.5C 25.0614,224.092 25.3948,222.592 25.5,221C 21.2973,197.634 20.464,174.134 23,150.5C 25.5903,145.651 27.9236,140.651 30,135.5C 30.3333,130.167 30.6667,124.833 31,119.5C 33.2601,114.644 36.2601,110.311 40,106.5C 41.0793,103.937 41.5793,101.271 41.5,98.5C 43.2959,97.2073 44.9625,95.7073 46.5,94C 52.3889,92.2647 58.0555,90.098 63.5,87.5C 63.2965,85.6096 63.9632,84.1096 65.5,83C 73.1676,80.6652 79.8343,76.6652 85.5,71C 88.1667,69.6667 90.8333,68.3333 93.5,67C 100,59.1667 106.5,51.3333 113,43.5C 114.596,40.2136 116.096,36.8803 117.5,33.5C 122.557,30.9801 127.891,28.9801 133.5,27.5 Z"/></g>
<g><path style="opacity:0.993" fill="#e5d5e7" d="M 110.5,33.5 C 112.792,34.6861 115.126,34.6861 117.5,33.5C 116.096,36.8803 114.596,40.2136 113,43.5C 106.5,51.3333 100,59.1667 93.5,67C 90.8333,68.3333 88.1667,69.6667 85.5,71C 79.8343,76.6652 73.1676,80.6652 65.5,83C 63.9632,84.1096 63.2965,85.6096 63.5,87.5C 58.0555,90.098 52.3889,92.2647 46.5,94C 44.9625,95.7073 43.2959,97.2073 41.5,98.5C 41.4914,96.6916 41.9914,95.0249 43,93.5C 46.8775,89.4901 50.0442,85.1568 52.5,80.5C 56.1803,76.817 59.5136,72.817 62.5,68.5C 70.5875,62.5858 78.2542,56.0858 85.5,49C 90.7762,46.193 96.1095,43.693 101.5,41.5C 101.5,40.1667 101.5,38.8333 101.5,37.5C 104.686,36.4031 107.686,35.0697 110.5,33.5 Z"/></g>
<g><path style="opacity:0.821" fill="#080708" d="M 101.5,37.5 C 101.5,38.8333 101.5,40.1667 101.5,41.5C 96.1095,43.693 90.7762,46.193 85.5,49C 78.2542,56.0858 70.5875,62.5858 62.5,68.5C 61.5876,67.2618 61.4209,65.9285 62,64.5C 72.3601,54.1346 83.8601,45.3013 96.5,38C 98.1341,37.5065 99.8008,37.3398 101.5,37.5 Z"/></g>
<g><path style="opacity:1" fill="#141414" d="M 125.5,45.5 C 130.316,44.8392 134.649,45.8392 138.5,48.5C 141.697,51.3641 145.364,53.3641 149.5,54.5C 153.589,53.2908 157.589,51.7908 161.5,50C 169.049,48.9455 175.049,51.4455 179.5,57.5C 180.324,60.7644 180.658,64.0977 180.5,67.5C 179.261,77.5614 174.261,85.0614 165.5,90C 160.833,92 156.167,94 151.5,96C 143.273,103.588 134.94,110.922 126.5,118C 121.4,119.853 116.4,121.853 111.5,124C 108.303,128.362 104.637,132.195 100.5,135.5C 95.9265,138.278 90.9265,139.612 85.5,139.5C 78.4336,137.432 74.1003,132.765 72.5,125.5C 74.2952,121.223 74.6285,116.89 73.5,112.5C 73.3379,110.473 73.5045,108.473 74,106.5C 76.6667,102.5 79.3333,98.5 82,94.5C 82.5482,90.8296 83.0482,87.1629 83.5,83.5C 90.504,74.9861 99.504,69.4861 110.5,67C 114.88,61.747 118.38,55.9136 121,49.5C 122.397,47.9297 123.897,46.5964 125.5,45.5 Z"/></g>
<g><path style="opacity:1" fill="#f5eef6" d="M 269.5,125.5 C 270.196,138.986 268.196,151.986 263.5,164.5C 263.665,161.15 263.498,157.817 263,154.5C 262.333,153.833 261.667,153.167 261,152.5C 255.968,169.571 250.635,186.571 245,203.5C 240.313,211.858 234.48,219.358 227.5,226C 223.684,227.409 220.017,229.076 216.5,231C 202.535,232.95 188.535,234.617 174.5,236C 169.151,239.177 163.484,241.51 157.5,243C 153.422,246.1 149.089,248.767 144.5,251C 137.551,252.456 130.718,254.289 124,256.5C 120.766,255.643 117.599,255.309 114.5,255.5C 114.167,255.833 113.833,256.167 113.5,256.5C 119.372,258.727 125.038,261.227 130.5,264C 129.833,264.333 129.167,264.667 128.5,265C 118.523,266.936 108.19,267.769 97.5,267.5C 97.5,266.167 97.5,264.833 97.5,263.5C 93.5,262.167 89.5,260.833 85.5,259.5C 83.2976,254.076 80.7976,248.742 78,243.5C 75.4579,236.062 73.7912,228.395 73,220.5C 70.045,214.302 68.7116,207.635 69,200.5C 66.1343,194.229 64.8009,187.562 65,180.5C 64,178.5 63,176.5 62,174.5C 61.9354,169.982 61.2687,165.649 60,161.5C 59.3333,155.167 59.3333,148.833 60,142.5C 61.1887,136.475 62.5221,130.475 64,124.5C 65.9002,118.81 68.5669,113.476 72,108.5C 72.21,110.058 72.71,111.391 73.5,112.5C 74.6285,116.89 74.2952,121.223 72.5,125.5C 74.1003,132.765 78.4336,137.432 85.5,139.5C 83.4325,147.609 82.9325,155.942 84,164.5C 85.0086,171.465 85.8419,178.465 86.5,185.5C 89.2939,193.307 91.1273,201.307 92,209.5C 94.2763,217.047 97.1096,224.38 100.5,231.5C 102.717,234.095 105.051,236.595 107.5,239C 111.92,241.502 116.254,244.169 120.5,247C 123.833,247.667 127.167,247.667 130.5,247C 135.044,245.264 139.71,243.93 144.5,243C 146.792,241.71 148.792,240.043 150.5,238C 154.167,236.896 157.5,235.229 160.5,233C 166.336,231.835 172.003,230.168 177.5,228C 189.192,227.732 200.859,227.066 212.5,226C 216.325,225.294 219.992,224.128 223.5,222.5C 228.491,216.518 232.991,210.185 237,203.5C 245.956,183.679 252.123,163.012 255.5,141.5C 253.84,133.011 250.006,125.678 244,119.5C 242.333,116.5 240.667,113.5 239,110.5C 232.667,104.167 226.333,97.8333 220,91.5C 216.333,86.5 212.667,81.5 209,76.5C 200.801,67.4374 190.967,61.1041 179.5,57.5C 175.049,51.4455 169.049,48.9455 161.5,50C 157.589,51.7908 153.589,53.2908 149.5,54.5C 145.364,53.3641 141.697,51.3641 138.5,48.5C 140.408,45.6304 142.408,42.7971 144.5,40C 152.022,35.9758 160.022,33.9758 168.5,34C 174.222,36.4914 180.222,38.4914 186.5,40C 189.383,42.7399 192.716,44.7399 196.5,46C 203.648,52.09 210.648,58.4234 217.5,65C 224.06,70.723 231.06,75.723 238.5,80C 239.337,81.0113 239.67,82.1779 239.5,83.5C 249.971,88.795 258.471,96.4617 265,106.5C 264.879,109.921 266.212,112.588 269,114.5C 269.499,118.152 269.665,121.818 269.5,125.5 Z"/></g>
<g><path style="opacity:1" fill="#e3d4e4" d="M 198.5,21.5 C 200.5,21.5 202.5,21.5 204.5,21.5C 204.804,22.1499 205.137,22.8165 205.5,23.5C 212.477,24.7435 219.143,26.9102 225.5,30C 231.243,30.6296 236.91,31.6296 242.5,33C 262.42,40.4562 279.42,52.1229 293.5,68C 299.568,71.3986 305.068,75.5653 310,80.5C 311.804,85.5797 313.804,90.5797 316,95.5C 323.237,100.641 326.737,107.641 326.5,116.5C 326.919,119.325 325.919,121.491 323.5,123C 318.666,124.919 313.999,127.085 309.5,129.5C 306.904,122.739 304.737,115.739 303,108.5C 302.617,107.944 302.117,107.611 301.5,107.5C 300.98,102.466 300.147,97.4657 299,92.5C 295.326,88.4592 291.826,84.2925 288.5,80C 283.023,79.8486 278.357,77.8486 274.5,74C 268.389,72.854 263.055,70.1874 258.5,66C 255.5,65.6667 252.5,65.3333 249.5,65C 243.854,61.1737 237.854,57.8404 231.5,55C 222.311,47.14 213.144,39.3067 204,31.5C 202.631,27.8721 200.797,24.5388 198.5,21.5 Z"/></g>
<g><path style="opacity:1" fill="#fcfcfc" d="M 126.5,49.5 C 129.187,49.3359 131.854,49.5026 134.5,50C 139.136,53.7358 144.303,56.2358 150,57.5C 154.136,57.3437 157.969,56.177 161.5,54C 170.614,52.2206 175.947,55.8873 177.5,65C 176.579,73.8518 172.579,80.8518 165.5,86C 160.249,88.5278 154.916,90.8611 149.5,93C 146.462,95.7026 143.795,98.7026 141.5,102C 134.695,104.8 129.029,109.133 124.5,115C 120.679,116.832 116.679,118.166 112.5,119C 107.521,124.311 102.187,129.311 96.5,134C 88.8784,137.074 82.3784,135.574 77,129.5C 76.3307,125.352 76.8307,121.352 78.5,117.5C 78.1253,115.084 77.4587,112.75 76.5,110.5C 78.7006,105.462 81.5339,100.796 85,96.5C 84.5654,88.7933 87.3987,82.6266 93.5,78C 99.4878,74.5059 105.821,71.8392 112.5,70C 114,68.5 115.5,67 117,65.5C 118.936,59.2728 122.102,53.9395 126.5,49.5 Z"/></g>
<g><path style="opacity:1" fill="#faf6fa" d="M 179.5,57.5 C 190.967,61.1041 200.801,67.4374 209,76.5C 212.667,81.5 216.333,86.5 220,91.5C 226.333,97.8333 232.667,104.167 239,110.5C 240.667,113.5 242.333,116.5 244,119.5C 250.006,125.678 253.84,133.011 255.5,141.5C 252.123,163.012 245.956,183.679 237,203.5C 232.991,210.185 228.491,216.518 223.5,222.5C 219.992,224.128 216.325,225.294 212.5,226C 200.859,227.066 189.192,227.732 177.5,228C 172.003,230.168 166.336,231.835 160.5,233C 157.5,235.229 154.167,236.896 150.5,238C 148.792,240.043 146.792,241.71 144.5,243C 139.71,243.93 135.044,245.264 130.5,247C 127.167,247.667 123.833,247.667 120.5,247C 116.254,244.169 111.92,241.502 107.5,239C 105.051,236.595 102.717,234.095 100.5,231.5C 97.1096,224.38 94.2763,217.047 92,209.5C 91.1273,201.307 89.2939,193.307 86.5,185.5C 85.8419,178.465 85.0086,171.465 84,164.5C 82.9325,155.942 83.4325,147.609 85.5,139.5C 90.9265,139.612 95.9265,138.278 100.5,135.5C 94.2084,169.068 100.208,200.402 118.5,229.5C 123.046,232.941 128.046,235.607 133.5,237.5C 142.697,232.239 152.03,227.572 161.5,223.5C 161.325,220.671 162.658,219.004 165.5,218.5C 170.833,217.833 176.167,217.167 181.5,216.5C 183.332,215.752 184.999,214.752 186.5,213.5C 195.38,220.629 205.38,222.463 216.5,219C 218.286,218.215 219.786,217.049 221,215.5C 222.577,212.249 224.577,209.249 227,206.5C 227.262,200.644 228.428,194.977 230.5,189.5C 234.126,181.964 237.292,174.298 240,166.5C 244.745,161.894 247.245,156.227 247.5,149.5C 243.748,140.26 239.415,131.26 234.5,122.5C 230.949,119.775 227.283,117.275 223.5,115C 220.85,111.084 217.85,107.417 214.5,104C 213.552,103.517 212.552,103.351 211.5,103.5C 211.66,101.801 211.494,100.134 211,98.5C 207.364,92.266 203.364,86.266 199,80.5C 195.5,77 192,73.5 188.5,70C 185.588,69.7248 182.921,68.8914 180.5,67.5C 180.658,64.0977 180.324,60.7644 179.5,57.5 Z"/></g>
<g><path style="opacity:1" fill="#fefdfe" d="M 180.5,67.5 C 182.921,68.8914 185.588,69.7248 188.5,70C 192,73.5 195.5,77 199,80.5C 203.364,86.266 207.364,92.266 211,98.5C 211.494,100.134 211.66,101.801 211.5,103.5C 212.552,103.351 213.552,103.517 214.5,104C 217.85,107.417 220.85,111.084 223.5,115C 227.283,117.275 230.949,119.775 234.5,122.5C 239.415,131.26 243.748,140.26 247.5,149.5C 247.245,156.227 244.745,161.894 240,166.5C 237.292,174.298 234.126,181.964 230.5,189.5C 228.428,194.977 227.262,200.644 227,206.5C 224.577,209.249 222.577,212.249 221,215.5C 219.786,217.049 218.286,218.215 216.5,219C 205.38,222.463 195.38,220.629 186.5,213.5C 184.999,214.752 183.332,215.752 181.5,216.5C 176.167,217.167 170.833,217.833 165.5,218.5C 162.658,219.004 161.325,220.671 161.5,223.5C 152.03,227.572 142.697,232.239 133.5,237.5C 128.046,235.607 123.046,232.941 118.5,229.5C 100.208,200.402 94.2084,169.068 100.5,135.5C 104.637,132.195 108.303,128.362 111.5,124C 116.4,121.853 121.4,119.853 126.5,118C 134.94,110.922 143.273,103.588 151.5,96C 156.167,94 160.833,92 165.5,90C 174.261,85.0614 179.261,77.5614 180.5,67.5 Z"/></g>
<g><path style="opacity:0.858" fill="#020401" d="M 658.5,232.5 C 657.305,232.134 656.639,231.301 656.5,230C 657.876,222.265 657.543,214.598 655.5,207C 655.667,205.5 655.833,204 656,202.5C 657.404,200.606 658.57,198.606 659.5,196.5C 657.953,194.067 656.953,191.401 656.5,188.5C 657.167,185.5 657.833,182.5 658.5,179.5C 656.017,173.437 656.017,167.271 658.5,161C 658.206,148.892 657.873,136.725 657.5,124.5C 650.812,124.902 644.145,125.569 637.5,126.5C 634.611,126.069 631.778,125.403 629,124.5C 624.554,125.412 620.054,125.745 615.5,125.5C 615.666,129.846 615.499,134.179 615,138.5C 613.087,142.259 612.253,146.259 612.5,150.5C 613.796,163.669 613.796,176.835 612.5,190C 615.107,200.827 615.107,211.661 612.5,222.5C 614.022,227.231 615.022,232.064 615.5,237C 614.563,244.154 614.396,251.32 615,258.5C 622.079,259.48 629.245,259.813 636.5,259.5C 643.5,259.5 650.5,259.5 657.5,259.5C 657.5,258.5 657.5,257.5 657.5,256.5C 657.214,250.741 657.548,245.075 658.5,239.5C 659.496,239.414 660.329,239.748 661,240.5C 661.89,247.914 661.557,255.247 660,262.5C 653.264,262.823 646.43,262.823 639.5,262.5C 639.576,276.072 639.576,289.739 639.5,303.5C 643.703,308.977 643.37,314.143 638.5,319C 639,319.5 639.5,320 640,320.5C 640.667,325.833 640.667,331.167 640,336.5C 638.989,337.337 637.822,337.67 636.5,337.5C 637.145,330.983 636.145,324.816 633.5,319C 634.97,316.558 636.304,314.058 637.5,311.5C 635.19,306.655 634.857,301.655 636.5,296.5C 635.247,285.142 634.747,273.809 635,262.5C 627.914,263.646 620.747,263.812 613.5,263C 612.151,262.228 611.318,261.061 611,259.5C 610.417,252.155 610.584,244.822 611.5,237.5C 608.867,228.016 608.867,218.516 611.5,209C 609.349,197.548 609.016,186.048 610.5,174.5C 609.531,167.369 608.864,160.202 608.5,153C 608.964,145.556 609.964,138.222 611.5,131C 611.72,127.884 611.053,125.05 609.5,122.5C 610,121.119 611,120.453 612.5,120.5C 620.051,121.117 627.551,121.784 635,122.5C 635.145,118.477 635.979,114.644 637.5,111C 630.182,107.213 629.682,102.713 636,97.5C 636.759,92.2926 636.592,87.1259 635.5,82C 636.333,79.5 637.833,79 640,80.5C 640.667,86.8333 640.667,93.1667 640,99.5C 638.341,100.817 637.174,102.483 636.5,104.5C 638.892,105.892 640.559,107.892 641.5,110.5C 639.836,114.453 639.503,118.453 640.5,122.5C 647.327,120.798 654.161,120.464 661,121.5C 661.303,125.529 661.803,129.529 662.5,133.5C 661.823,145.996 661.157,158.496 660.5,171C 663.167,176.667 663.167,182.333 660.5,188C 661.198,191.179 662.532,194.012 664.5,196.5C 664.012,199.474 662.512,201.807 660,203.5C 659.771,209.537 660.271,215.537 661.5,221.5C 661.324,224.882 660.824,228.215 660,231.5C 659.617,232.056 659.117,232.389 658.5,232.5 Z"/></g>
<g><path style="opacity:0.869" fill="#0c0b0c" d="M 52.5,80.5 C 50.0442,85.1568 46.8775,89.4901 43,93.5C 41.9914,95.0249 41.4914,96.6916 41.5,98.5C 41.5793,101.271 41.0793,103.937 40,106.5C 36.2601,110.311 33.2601,114.644 31,119.5C 30.6667,124.833 30.3333,130.167 30,135.5C 27.9236,140.651 25.5903,145.651 23,150.5C 20.464,174.134 21.2973,197.634 25.5,221C 25.3948,222.592 25.0614,224.092 24.5,225.5C 21.6118,220.332 19.7784,214.665 19,208.5C 17.1734,189.505 17.1734,170.505 19,151.5C 20.5166,145.471 22.8499,139.804 26,134.5C 26.1378,128.419 26.8044,122.419 28,116.5C 31.3943,112.102 34.3943,107.435 37,102.5C 37.083,94.5006 40.2497,88.0006 46.5,83C 48.2166,81.4412 50.2166,80.6079 52.5,80.5 Z"/></g>
<g><path style="opacity:1" fill="#efe4f0" d="M 83.5,83.5 C 83.0482,87.1629 82.5482,90.8296 82,94.5C 79.3333,98.5 76.6667,102.5 74,106.5C 73.5045,108.473 73.3379,110.473 73.5,112.5C 72.71,111.391 72.21,110.058 72,108.5C 68.5669,113.476 65.9002,118.81 64,124.5C 62.5221,130.475 61.1887,136.475 60,142.5C 59.3333,148.833 59.3333,155.167 60,161.5C 61.2687,165.649 61.9354,169.982 62,174.5C 63,176.5 64,178.5 65,180.5C 64.8009,187.562 66.1343,194.229 69,200.5C 68.7116,207.635 70.045,214.302 73,220.5C 73.7912,228.395 75.4579,236.062 78,243.5C 80.7976,248.742 83.2976,254.076 85.5,259.5C 89.5,260.833 93.5,262.167 97.5,263.5C 97.5,264.833 97.5,266.167 97.5,267.5C 108.19,267.769 118.523,266.936 128.5,265C 129.167,264.667 129.833,264.333 130.5,264C 125.038,261.227 119.372,258.727 113.5,256.5C 113.833,256.167 114.167,255.833 114.5,255.5C 117.599,255.309 120.766,255.643 124,256.5C 130.718,254.289 137.551,252.456 144.5,251C 149.089,248.767 153.422,246.1 157.5,243C 163.484,241.51 169.151,239.177 174.5,236C 188.535,234.617 202.535,232.95 216.5,231C 220.017,229.076 223.684,227.409 227.5,226C 234.48,219.358 240.313,211.858 245,203.5C 250.635,186.571 255.968,169.571 261,152.5C 261.667,153.167 262.333,153.833 263,154.5C 263.498,157.817 263.665,161.15 263.5,164.5C 260.491,181.207 255.324,197.207 248,212.5C 244.898,215.212 242.398,218.379 240.5,222C 236.59,223.907 233.256,226.573 230.5,230C 226.833,231.104 223.5,232.771 220.5,235C 216.106,235.453 211.939,236.619 208,238.5C 191.092,238.15 174.926,241.65 159.5,249C 151.191,254.988 142.191,259.654 132.5,263C 135.319,264.243 137.986,265.743 140.5,267.5C 141.88,265.023 142.88,265.023 143.5,267.5C 129.989,274.173 116.823,281.506 104,289.5C 103.481,288.484 102.647,287.818 101.5,287.5C 95.5703,289.045 89.5703,290.378 83.5,291.5C 82.1667,291.167 80.8333,290.833 79.5,290.5C 78.1189,288.365 77.1189,286.032 76.5,283.5C 74.8681,280.854 72.5348,279.521 69.5,279.5C 66.1718,271.843 63.8385,263.843 62.5,255.5C 60.8171,237.155 58.9838,218.822 57,200.5C 54.9602,193.982 52.7935,187.482 50.5,181C 51.9227,179.588 51.756,178.421 50,177.5C 49.8295,172.136 49.3295,166.802 48.5,161.5C 44.8341,151.502 43.3341,141.169 44,130.5C 45.1628,128.715 45.8295,126.715 46,124.5C 50.8148,119.023 54.8148,113.023 58,106.5C 66.4471,99.094 74.9471,91.4273 83.5,83.5 Z"/></g>
<g><path style="opacity:1" fill="#83dd58" d="M 658.5,232.5 C 658.5,234.833 658.5,237.167 658.5,239.5C 657.548,245.075 657.214,250.741 657.5,256.5C 650.592,258.091 643.592,259.091 636.5,259.5C 629.245,259.813 622.079,259.48 615,258.5C 614.396,251.32 614.563,244.154 615.5,237C 615.022,232.064 614.022,227.231 612.5,222.5C 615.107,211.661 615.107,200.827 612.5,190C 613.796,176.835 613.796,163.669 612.5,150.5C 612.253,146.259 613.087,142.259 615,138.5C 615.499,134.179 615.666,129.846 615.5,125.5C 620.054,125.745 624.554,125.412 629,124.5C 631.778,125.403 634.611,126.069 637.5,126.5C 644.145,125.569 650.812,124.902 657.5,124.5C 657.873,136.725 658.206,148.892 658.5,161C 656.017,167.271 656.017,173.437 658.5,179.5C 657.833,182.5 657.167,185.5 656.5,188.5C 656.953,191.401 657.953,194.067 659.5,196.5C 658.57,198.606 657.404,200.606 656,202.5C 655.833,204 655.667,205.5 655.5,207C 657.543,214.598 657.876,222.265 656.5,230C 656.639,231.301 657.305,232.134 658.5,232.5 Z"/></g>
<g><path style="opacity:1" fill="#090e06" d="M 621.5,134.5 C 622.5,134.5 623.5,134.5 624.5,134.5C 624.5,144.167 624.5,153.833 624.5,163.5C 621.535,163.27 620.202,161.603 620.5,158.5C 621.403,150.528 621.737,142.528 621.5,134.5 Z"/></g>
<g><path style="opacity:1" fill="#f3e2f5" d="M 301.5,107.5 C 302.117,107.611 302.617,107.944 303,108.5C 304.737,115.739 306.904,122.739 309.5,129.5C 307.637,131.492 305.304,132.992 302.5,134C 300.383,135.731 298.883,137.898 298,140.5C 297.705,135.732 295.872,131.732 292.5,128.5C 288.467,135.901 284.967,143.568 282,151.5C 281,147.833 280,144.167 279,140.5C 275.207,150.668 271.874,161.001 269,171.5C 266.178,186.265 261.845,200.598 256,214.5C 253.588,218.916 250.422,222.749 246.5,226C 240.819,229.173 235.486,232.839 230.5,237C 225.177,238.994 219.843,240.994 214.5,243C 189.285,243.455 166.619,250.955 146.5,265.5C 145.5,266.167 144.5,266.833 143.5,267.5C 142.88,265.023 141.88,265.023 140.5,267.5C 137.986,265.743 135.319,264.243 132.5,263C 142.191,259.654 151.191,254.988 159.5,249C 174.926,241.65 191.092,238.15 208,238.5C 211.939,236.619 216.106,235.453 220.5,235C 223.5,232.771 226.833,231.104 230.5,230C 233.256,226.573 236.59,223.907 240.5,222C 242.398,218.379 244.898,215.212 248,212.5C 255.324,197.207 260.491,181.207 263.5,164.5C 268.196,151.986 270.196,138.986 269.5,125.5C 272.231,130.142 275.065,134.808 278,139.5C 279,136.167 280,132.833 281,129.5C 281.333,125.167 281.667,120.833 282,116.5C 282.915,115.672 283.581,114.672 284,113.5C 286.185,118.545 289.018,123.212 292.5,127.5C 294.233,123.137 296.066,118.804 298,114.5C 300.741,112.933 301.908,110.599 301.5,107.5 Z"/></g>
<g><path style="opacity:0.898" fill="#000000" d="M 453.5,138.5 C 458.179,138.334 462.845,138.501 467.5,139C 470.608,146.261 468.108,150.427 460,151.5C 456.588,150.134 453.088,149.634 449.5,150C 436.891,155.937 426.725,164.77 419,176.5C 410.164,190.32 413.664,199.153 429.5,203C 441.81,204.812 454.143,206.479 466.5,208C 472.936,208.584 478.436,211.084 483,215.5C 484.493,225.031 480.993,232.198 472.5,237C 456.173,247.998 438.173,253.331 418.5,253C 417.167,251.333 417.167,249.667 418.5,248C 435.642,243.622 451.976,237.288 467.5,229C 470.219,226.618 472.553,223.951 474.5,221C 472.41,218.622 469.743,217.288 466.5,217C 456.177,215.594 445.844,214.26 435.5,213C 403.172,207.36 396.672,191.194 416,164.5C 426.142,152.199 438.642,143.532 453.5,138.5 Z"/></g>
<g><path style="opacity:1" fill="#eed8f1" d="M 326.5,116.5 C 329.026,121.193 331.859,125.86 335,130.5C 335.977,132.74 336.477,135.073 336.5,137.5C 324.215,137.161 313.215,140.494 303.5,147.5C 302.833,147.333 302.167,147.167 301.5,147C 300.253,145.054 298.92,143.22 297.5,141.5C 295.851,142.648 294.351,143.981 293,145.5C 289.937,149.569 287.27,153.902 285,158.5C 283.983,156.624 283.149,154.624 282.5,152.5C 279.856,156.121 278.023,160.121 277,164.5C 273.663,183.534 268.329,201.867 261,219.5C 258.626,221.539 256.626,223.872 255,226.5C 251.146,228.995 247.646,231.829 244.5,235C 237.875,238.313 231.208,241.646 224.5,245C 211.774,248.05 198.774,250.384 185.5,252C 178.612,254.853 171.612,257.52 164.5,260C 162.5,261.667 160.5,263.333 158.5,265C 161.679,263.964 165.012,263.631 168.5,264C 163.008,267.073 158.341,271.073 154.5,276C 149.896,277.605 146.562,280.605 144.5,285C 145.667,285.167 146.833,285.333 148,285.5C 150.239,284.909 152.406,284.242 154.5,283.5C 149.873,290.197 145.707,297.197 142,304.5C 140.546,311.518 139.046,318.518 137.5,325.5C 135.236,324.781 132.903,324.448 130.5,324.5C 131.598,323.603 131.598,322.77 130.5,322C 127.635,321.817 124.969,321.317 122.5,320.5C 123.458,320.047 124.292,319.381 125,318.5C 129.333,309.5 133.667,300.5 138,291.5C 139.833,289.667 141.667,287.833 143.5,286C 140.58,284.766 137.58,283.766 134.5,283C 141.049,277.159 147.716,271.493 154.5,266C 151.854,265.503 149.187,265.336 146.5,265.5C 166.619,250.955 189.285,243.455 214.5,243C 219.843,240.994 225.177,238.994 230.5,237C 235.486,232.839 240.819,229.173 246.5,226C 250.422,222.749 253.588,218.916 256,214.5C 261.845,200.598 266.178,186.265 269,171.5C 271.874,161.001 275.207,150.668 279,140.5C 280,144.167 281,147.833 282,151.5C 284.967,143.568 288.467,135.901 292.5,128.5C 295.872,131.732 297.705,135.732 298,140.5C 298.883,137.898 300.383,135.731 302.5,134C 305.304,132.992 307.637,131.492 309.5,129.5C 313.999,127.085 318.666,124.919 323.5,123C 325.919,121.491 326.919,119.325 326.5,116.5 Z"/></g>
<g><path style="opacity:1" fill="#ebcaef" d="M 304.5,158.5 C 294.59,166.785 290.423,177.452 292,190.5C 292.485,195.488 294.318,199.821 297.5,203.5C 295.09,208.968 292.09,214.301 288.5,219.5C 286.858,227.727 284.858,235.727 282.5,243.5C 282.167,243.5 281.833,243.5 281.5,243.5C 273.42,244.864 265.42,246.697 257.5,249C 251.998,252.585 246.331,255.919 240.5,259C 224.184,265.101 207.184,268.101 189.5,268C 181.298,270.771 173.965,275.104 167.5,281C 170.167,282 172.833,283 175.5,284C 170.587,291.142 167.253,298.975 165.5,307.5C 165.334,312.844 165.501,318.177 166,323.5C 167.713,325.821 166.88,326.821 163.5,326.5C 161.585,326.216 159.919,326.549 158.5,327.5C 157.167,327.5 155.833,327.5 154.5,327.5C 153.737,326.732 152.737,326.232 151.5,326C 153.612,314.998 156.445,303.832 160,292.5C 162.207,289.922 164.04,287.089 165.5,284C 161.848,283.501 158.182,283.335 154.5,283.5C 157.266,280.836 159.933,278.003 162.5,275C 166.896,272.475 170.896,269.475 174.5,266C 185.926,262.062 197.593,260.229 209.5,260.5C 214.237,258.281 219.237,257.114 224.5,257C 232.769,253.864 240.769,250.198 248.5,246C 258.756,240.534 268.756,234.534 278.5,228C 279.448,227.517 280.448,227.351 281.5,227.5C 282.507,221.293 283.841,215.127 285.5,209C 282.784,194.803 283.617,180.636 288,166.5C 291.975,160.36 296.141,154.36 300.5,148.5C 302.697,151.487 304.031,154.82 304.5,158.5 Z"/></g>
<g><path style="opacity:1" fill="#e6c0eb" d="M 307.5,157.5 C 307.5,160.833 307.5,164.167 307.5,167.5C 314.61,166.2 321.944,164.867 329.5,163.5C 329.334,169.509 329.501,175.509 330,181.5C 330.5,182 331,182.5 331.5,183C 329.947,186.217 328.947,189.717 328.5,193.5C 326.248,196.387 323.248,197.72 319.5,197.5C 317.5,197.333 315.5,197.167 313.5,197C 312.051,195.883 310.384,195.216 308.5,195C 307.781,192.444 306.114,191.277 303.5,191.5C 303.802,196.679 303.135,201.679 301.5,206.5C 299.545,206.201 298.211,205.201 297.5,203.5C 294.318,199.821 292.485,195.488 292,190.5C 290.423,177.452 294.59,166.785 304.5,158.5C 305.391,157.89 306.391,157.557 307.5,157.5 Z"/></g>
<g><path style="opacity:0.891" fill="#000000" d="M 696.5,169.5 C 705.808,169.301 711.974,173.634 715,182.5C 719.639,198.514 719.639,214.514 715,230.5C 710.229,243.281 701.229,250.948 688,253.5C 680.013,252.52 674.68,248.187 672,240.5C 664.473,215.805 669.306,193.972 686.5,175C 689.767,172.87 693.1,171.037 696.5,169.5 Z M 696.5,178.5 C 701.531,179.017 705.031,181.683 707,186.5C 714.197,203.818 712.53,220.151 702,235.5C 698.425,240.282 693.758,243.282 688,244.5C 683.85,243.688 680.85,241.354 679,237.5C 675.217,220.346 677.551,204.013 686,188.5C 688.738,184.26 692.238,180.926 696.5,178.5 Z"/></g>
<g><path style="opacity:0.895" fill="#000000" d="M 543.5,170.5 C 546.056,170.132 548.056,170.966 549.5,173C 555.798,193.561 562.298,214.061 569,234.5C 576.803,213.923 583.303,192.923 588.5,171.5C 594.304,170.135 596.804,172.468 596,178.5C 588.572,203.718 581.072,228.885 573.5,254C 571.167,254.667 568.833,254.667 566.5,254C 557.238,227.988 548.571,201.655 540.5,175C 540.957,173.06 541.957,171.56 543.5,170.5 Z"/></g>
<g><path style="opacity:0.901" fill="#000000" d="M 724.5,170.5 C 727.044,170.104 729.211,170.771 731,172.5C 731.333,181.167 731.667,189.833 732,198.5C 739.283,179.112 753.116,170.946 773.5,174C 776.353,177.096 776.02,179.763 772.5,182C 748.842,183.324 736.008,195.824 734,219.5C 733.667,230.5 733.333,241.5 733,252.5C 729.729,255.197 726.729,254.864 724,251.5C 722.951,225.172 722.618,198.838 723,172.5C 723.717,171.956 724.217,171.289 724.5,170.5 Z"/></g>
<g><path style="opacity:0.898" fill="#000000" d="M 518.5,171.5 C 522.853,171.765 527.187,172.265 531.5,173C 533.333,173.5 534.5,174.667 535,176.5C 535.619,198.07 538.286,219.404 543,240.5C 543.667,244.5 543.667,248.5 543,252.5C 538.641,255.758 535.641,254.758 534,249.5C 532.828,239.209 532.161,228.876 532,218.5C 527.208,230.624 520.042,241.124 510.5,250C 500.695,255.262 493.862,252.762 490,242.5C 486.704,217.176 493.538,195.009 510.5,176C 513.099,174.205 515.766,172.705 518.5,171.5 Z M 519.5,180.5 C 522.652,179.959 525.152,180.959 527,183.5C 528.055,191.149 528.388,198.815 528,206.5C 524.306,216.889 519.306,226.556 513,235.5C 504.45,247.155 498.95,245.821 496.5,231.5C 497.856,218.072 501.69,205.406 508,193.5C 510.984,188.353 514.818,184.02 519.5,180.5 Z"/></g>
<g><path style="opacity:1" fill="#eed2f2" d="M 336.5,137.5 C 337.475,140.311 338.142,143.311 338.5,146.5C 338.5,148.167 338.5,149.833 338.5,151.5C 333.893,151.468 329.393,152.134 325,153.5C 323.439,153.397 321.939,153.063 320.5,152.5C 316.015,153.915 311.681,155.582 307.5,157.5C 306.391,157.557 305.391,157.89 304.5,158.5C 304.031,154.82 302.697,151.487 300.5,148.5C 296.141,154.36 291.975,160.36 288,166.5C 283.617,180.636 282.784,194.803 285.5,209C 283.841,215.127 282.507,221.293 281.5,227.5C 280.448,227.351 279.448,227.517 278.5,228C 268.756,234.534 258.756,240.534 248.5,246C 240.769,250.198 232.769,253.864 224.5,257C 219.237,257.114 214.237,258.281 209.5,260.5C 197.593,260.229 185.926,262.062 174.5,266C 170.896,269.475 166.896,272.475 162.5,275C 159.933,278.003 157.266,280.836 154.5,283.5C 152.406,284.242 150.239,284.909 148,285.5C 146.833,285.333 145.667,285.167 144.5,285C 146.562,280.605 149.896,277.605 154.5,276C 158.341,271.073 163.008,267.073 168.5,264C 165.012,263.631 161.679,263.964 158.5,265C 160.5,263.333 162.5,261.667 164.5,260C 171.612,257.52 178.612,254.853 185.5,252C 198.774,250.384 211.774,248.05 224.5,245C 231.208,241.646 237.875,238.313 244.5,235C 247.646,231.829 251.146,228.995 255,226.5C 256.626,223.872 258.626,221.539 261,219.5C 268.329,201.867 273.663,183.534 277,164.5C 278.023,160.121 279.856,156.121 282.5,152.5C 283.149,154.624 283.983,156.624 285,158.5C 287.27,153.902 289.937,149.569 293,145.5C 294.351,143.981 295.851,142.648 297.5,141.5C 298.92,143.22 300.253,145.054 301.5,147C 302.167,147.167 302.833,147.333 303.5,147.5C 313.215,140.494 324.215,137.161 336.5,137.5 Z"/></g>
<g><path style="opacity:0.972" fill="#e2c2e6" d="M 338.5,146.5 C 340.75,160.8 341.084,175.3 339.5,190C 339.569,191.986 340.235,193.486 341.5,194.5C 341.161,201.534 340.494,208.534 339.5,215.5C 338.5,215.5 337.5,215.5 336.5,215.5C 332.516,213.873 328.182,212.706 323.5,212C 316.588,212.037 309.922,211.037 303.5,209C 302.619,208.292 301.953,207.458 301.5,206.5C 303.135,201.679 303.802,196.679 303.5,191.5C 306.114,191.277 307.781,192.444 308.5,195C 310.384,195.216 312.051,195.883 313.5,197C 315.5,197.167 317.5,197.333 319.5,197.5C 323.248,197.72 326.248,196.387 328.5,193.5C 328.947,189.717 329.947,186.217 331.5,183C 331,182.5 330.5,182 330,181.5C 329.501,175.509 329.334,169.509 329.5,163.5C 321.944,164.867 314.61,166.2 307.5,167.5C 307.5,164.167 307.5,160.833 307.5,157.5C 311.681,155.582 316.015,153.915 320.5,152.5C 321.939,153.063 323.439,153.397 325,153.5C 329.393,152.134 333.893,151.468 338.5,151.5C 338.5,149.833 338.5,148.167 338.5,146.5 Z"/></g>
<g><path style="opacity:1" fill="#e4cae7" d="M 297.5,203.5 C 298.211,205.201 299.545,206.201 301.5,206.5C 301.953,207.458 302.619,208.292 303.5,209C 309.922,211.037 316.588,212.037 323.5,212C 328.182,212.706 332.516,213.873 336.5,215.5C 332.604,224.367 329.77,233.701 328,243.5C 325.443,248.723 322.109,253.39 318,257.5C 315.095,264.104 311.928,270.437 308.5,276.5C 305.886,269.273 302.219,262.606 297.5,256.5C 291.864,252.862 286.864,248.528 282.5,243.5C 284.858,235.727 286.858,227.727 288.5,219.5C 292.09,214.301 295.09,208.968 297.5,203.5 Z"/></g>
<g><path style="opacity:0.934" fill="#0e0c0b" d="M 336.5,215.5 C 337.5,215.5 338.5,215.5 339.5,215.5C 336.707,225.052 334.207,234.719 332,244.5C 328.408,251.354 324.075,257.687 319,263.5C 315.41,276.57 307.91,286.57 296.5,293.5C 295.508,293.328 294.842,293.662 294.5,294.5C 291.19,296.482 288.19,298.815 285.5,301.5C 275.831,306.853 266.164,312.353 256.5,318C 254.167,318.333 251.833,318.667 249.5,319C 244.148,323.779 237.815,325.779 230.5,325C 225.585,328.319 220.252,329.152 214.5,327.5C 201.199,329.014 187.866,330.348 174.5,331.5C 170.111,331.455 165.777,330.955 161.5,330C 159.881,329.764 158.881,328.931 158.5,327.5C 159.919,326.549 161.585,326.216 163.5,326.5C 180.261,327.58 197.094,326.913 214,324.5C 219.017,326.458 223.517,325.791 227.5,322.5C 232.535,321.929 237.535,321.096 242.5,320C 246.772,315.42 252.105,313.086 258.5,313C 264.897,309.141 271.23,305.308 277.5,301.5C 286.125,296.179 294.458,290.345 302.5,284C 305.118,281.894 307.118,279.394 308.5,276.5C 311.928,270.437 315.095,264.104 318,257.5C 322.109,253.39 325.443,248.723 328,243.5C 329.77,233.701 332.604,224.367 336.5,215.5 Z"/></g>
<g><path style="opacity:0.065" fill="#101014" d="M 599.5,222.5 C 599.56,221.957 599.893,221.624 600.5,221.5C 601.583,222.365 601.749,223.365 601,224.5C 600.722,223.584 600.222,222.918 599.5,222.5 Z"/></g>
<g><path style="opacity:1" fill="#0d1308" d="M 647.5,224.5 C 648.5,224.5 649.5,224.5 650.5,224.5C 650.666,232.84 650.5,241.173 650,249.5C 648.883,251.124 647.383,252.124 645.5,252.5C 639.855,251.578 634.188,251.578 628.5,252.5C 628.5,251.5 628.5,250.5 628.5,249.5C 634.754,249.22 640.92,248.553 647,247.5C 646.235,239.831 646.402,232.165 647.5,224.5 Z"/></g>
<g><path style="opacity:0.859" fill="#0b0a0b" d="M 27.5,235.5 C 28.8221,235.33 29.9887,235.663 31,236.5C 34.1015,242.226 36.6015,248.226 38.5,254.5C 38.4573,255.416 38.1239,256.083 37.5,256.5C 35.2243,254.669 33.391,252.336 32,249.5C 30.6403,245.135 28.807,240.969 26.5,237C 26.5699,236.235 26.9033,235.735 27.5,235.5 Z"/></g>
<g><path style="opacity:1" fill="#e3c1e8" d="M 281.5,243.5 C 281.833,243.5 282.167,243.5 282.5,243.5C 286.864,248.528 291.864,252.862 297.5,256.5C 302.219,262.606 305.886,269.273 308.5,276.5C 307.118,279.394 305.118,281.894 302.5,284C 294.458,290.345 286.125,296.179 277.5,301.5C 277.389,300.883 277.056,300.383 276.5,300C 268.156,299.044 259.823,298.377 251.5,298C 248.262,300.733 244.595,302.733 240.5,304C 237.318,307.349 233.985,310.516 230.5,313.5C 228.956,316.356 227.956,319.356 227.5,322.5C 223.517,325.791 219.017,326.458 214,324.5C 197.094,326.913 180.261,327.58 163.5,326.5C 166.88,326.821 167.713,325.821 166,323.5C 165.501,318.177 165.334,312.844 165.5,307.5C 174.95,309.202 184.283,311.536 193.5,314.5C 195.167,316.167 196.833,317.833 198.5,319.5C 199.167,318.833 199.833,318.167 200.5,317.5C 204.628,319.683 208.961,320.016 213.5,318.5C 216.122,317.048 217.788,314.881 218.5,312C 219.448,311.517 220.448,311.351 221.5,311.5C 226.87,302.96 233.87,295.794 242.5,290C 245.093,289.463 247.593,288.63 250,287.5C 254.987,289.268 260.153,290.601 265.5,291.5C 268.471,289.766 271.637,288.433 275,287.5C 276.551,288.054 278.051,288.72 279.5,289.5C 282.651,287.587 285.984,286.254 289.5,285.5C 287.866,279.718 287.032,273.718 287,267.5C 285.333,265.833 283.667,264.167 282,262.5C 281.5,256.175 281.334,249.842 281.5,243.5 Z"/></g>
<g><path style="opacity:1" fill="#e8bfed" d="M 281.5,243.5 C 281.334,249.842 281.5,256.175 282,262.5C 283.667,264.167 285.333,265.833 287,267.5C 287.032,273.718 287.866,279.718 289.5,285.5C 285.984,286.254 282.651,287.587 279.5,289.5C 278.051,288.72 276.551,288.054 275,287.5C 271.637,288.433 268.471,289.766 265.5,291.5C 260.153,290.601 254.987,289.268 250,287.5C 247.593,288.63 245.093,289.463 242.5,290C 233.87,295.794 226.87,302.96 221.5,311.5C 220.448,311.351 219.448,311.517 218.5,312C 217.788,314.881 216.122,317.048 213.5,318.5C 208.961,320.016 204.628,319.683 200.5,317.5C 199.833,318.167 199.167,318.833 198.5,319.5C 196.833,317.833 195.167,316.167 193.5,314.5C 184.283,311.536 174.95,309.202 165.5,307.5C 167.253,298.975 170.587,291.142 175.5,284C 172.833,283 170.167,282 167.5,281C 173.965,275.104 181.298,270.771 189.5,268C 207.184,268.101 224.184,265.101 240.5,259C 246.331,255.919 251.998,252.585 257.5,249C 265.42,246.697 273.42,244.864 281.5,243.5 Z"/></g>
<g><path style="opacity:1" fill="#43712d" d="M 657.5,256.5 C 657.5,257.5 657.5,258.5 657.5,259.5C 650.5,259.5 643.5,259.5 636.5,259.5C 643.592,259.091 650.592,258.091 657.5,256.5 Z"/></g>
<g><path style="opacity:0.917" fill="#0f0d0b" d="M 42.5,266.5 C 47.6058,271.779 52.6058,277.279 57.5,283C 60.1024,283.883 62.2691,285.383 64,287.5C 65.776,290.941 67.9426,294.108 70.5,297C 75.3844,299.22 79.7178,302.22 83.5,306C 96.2304,311.598 109.23,316.431 122.5,320.5C 124.969,321.317 127.635,321.817 130.5,322C 131.598,322.77 131.598,323.603 130.5,324.5C 130.167,324.5 129.833,324.5 129.5,324.5C 126.482,324.665 123.482,324.498 120.5,324C 114.887,321.978 109.22,320.145 103.5,318.5C 97.3851,315.733 91.0517,313.233 84.5,311C 80.2424,308.707 76.5758,305.707 73.5,302C 70.9289,300.546 68.2622,299.38 65.5,298.5C 63.8105,292.641 60.1439,288.474 54.5,286C 49.1696,280.846 44.8363,275.013 41.5,268.5C 41.5427,267.584 41.8761,266.917 42.5,266.5 Z"/></g>
<g><path style="opacity:0.856" fill="#090807" d="M 299.5,296.5 C 305.624,299.455 308.624,304.455 308.5,311.5C 308.096,315.922 307.263,320.256 306,324.5C 303.004,329.651 299.838,334.651 296.5,339.5C 295.292,340.234 293.959,340.567 292.5,340.5C 292.343,339.127 292.51,337.793 293,336.5C 301.405,328.617 305.072,318.95 304,307.5C 303.576,304.975 302.41,302.975 300.5,301.5C 299.833,300.833 299.167,300.167 298.5,299.5C 298.557,298.391 298.89,297.391 299.5,296.5 Z"/></g>
<g><path style="opacity:1" fill="#e0c8e3" d="M 277.5,301.5 C 271.23,305.308 264.897,309.141 258.5,313C 252.105,313.086 246.772,315.42 242.5,320C 237.535,321.096 232.535,321.929 227.5,322.5C 227.956,319.356 228.956,316.356 230.5,313.5C 233.985,310.516 237.318,307.349 240.5,304C 244.595,302.733 248.262,300.733 251.5,298C 259.823,298.377 268.156,299.044 276.5,300C 277.056,300.383 277.389,300.883 277.5,301.5 Z"/></g>
<g><path style="opacity:0.845" fill="#0c0a08" d="M 62.5,302.5 C 62.4828,304.565 62.1495,306.565 61.5,308.5C 58.3528,310.313 56.3528,312.98 55.5,316.5C 53.7345,319.123 53.0679,322.123 53.5,325.5C 55.1177,327.656 54.7843,329.323 52.5,330.5C 51.5041,330.586 50.6708,330.252 50,329.5C 48.3425,317.579 52.5091,308.579 62.5,302.5 Z"/></g>
<g><path style="opacity:1" fill="#e4cae6" d="M 154.5,283.5 C 158.182,283.335 161.848,283.501 165.5,284C 164.04,287.089 162.207,289.922 160,292.5C 156.445,303.832 153.612,314.998 151.5,326C 152.737,326.232 153.737,326.732 154.5,327.5C 148.82,326.942 143.153,326.275 137.5,325.5C 139.046,318.518 140.546,311.518 142,304.5C 145.707,297.197 149.873,290.197 154.5,283.5 Z"/></g>
<g><path style="opacity:1" fill="#fbda7e" d="M 65.5,298.5 C 68.2622,299.38 70.9289,300.546 73.5,302C 76.5758,305.707 80.2424,308.707 84.5,311C 91.0517,313.233 97.3851,315.733 103.5,318.5C 89.7069,316.806 76.0403,313.973 62.5,310C 61.944,309.617 61.6107,309.117 61.5,308.5C 62.1495,306.565 62.4828,304.565 62.5,302.5C 63.5,301.167 64.5,299.833 65.5,298.5 Z"/></g>
<g><path style="opacity:1" fill="#fad87a" d="M 285.5,301.5 C 285.938,301.435 286.272,301.601 286.5,302C 284.691,305.797 282.525,309.297 280,312.5C 274.162,318.005 268.662,323.838 263.5,330C 255.803,330.768 248.137,330.602 240.5,329.5C 235.714,331.275 230.881,331.608 226,330.5C 214.459,333.409 202.793,334.075 191,332.5C 181.718,333.962 172.384,334.962 163,335.5C 152.086,334.32 141.253,332.653 130.5,330.5C 129.2,329.173 127.867,327.84 126.5,326.5C 127.602,325.824 128.602,325.158 129.5,324.5C 129.833,324.5 130.167,324.5 130.5,324.5C 132.903,324.448 135.236,324.781 137.5,325.5C 143.153,326.275 148.82,326.942 154.5,327.5C 155.833,327.5 157.167,327.5 158.5,327.5C 158.881,328.931 159.881,329.764 161.5,330C 165.777,330.955 170.111,331.455 174.5,331.5C 187.866,330.348 201.199,329.014 214.5,327.5C 220.252,329.152 225.585,328.319 230.5,325C 237.815,325.779 244.148,323.779 249.5,319C 251.833,318.667 254.167,318.333 256.5,318C 266.164,312.353 275.831,306.853 285.5,301.5 Z"/></g>
<g><path style="opacity:1" fill="#fee5a3" d="M 294.5,294.5 C 294.842,293.662 295.508,293.328 296.5,293.5C 297.167,294.833 298.167,295.833 299.5,296.5C 298.89,297.391 298.557,298.391 298.5,299.5C 293.23,305.271 287.73,310.938 282,316.5C 278.967,321.106 277.967,326.106 279,331.5C 283.698,338.891 286.698,346.891 288,355.5C 287.996,367.596 288.83,379.596 290.5,391.5C 289.609,392.11 288.609,392.443 287.5,392.5C 285.615,378.886 284.115,365.219 283,351.5C 278.794,344.886 274.96,338.053 271.5,331C 274.714,321.15 280.214,312.983 288,306.5C 289.629,302.069 292.129,298.236 295.5,295C 295.272,294.601 294.938,294.435 294.5,294.5 Z"/></g>
<g><path style="opacity:1" fill="#fcedc7" d="M 300.5,301.5 C 302.41,302.975 303.576,304.975 304,307.5C 305.072,318.95 301.405,328.617 293,336.5C 292.51,337.793 292.343,339.127 292.5,340.5C 293.959,340.567 295.292,340.234 296.5,339.5C 297.609,339.557 298.609,339.89 299.5,340.5C 300.392,350.134 300.725,359.801 300.5,369.5C 297.882,370.945 295.382,372.611 293,374.5C 292.721,376.412 293.554,377.746 295.5,378.5C 295.505,382.534 295.838,386.534 296.5,390.5C 295.167,390.5 293.833,390.5 292.5,390.5C 292.045,387.797 291.378,385.13 290.5,382.5C 292.261,367.692 291.428,353.025 288,338.5C 285.121,333.455 282.954,328.121 281.5,322.5C 281.621,321.106 281.954,319.772 282.5,318.5C 285.505,316.463 288.505,314.463 291.5,312.5C 294.865,309.135 297.865,305.468 300.5,301.5 Z"/></g>
<g><path style="opacity:1" fill="#fde9b5" d="M 55.5,316.5 C 61.0294,317.382 66.5294,317.382 72,316.5C 77.9841,317.556 83.8174,319.056 89.5,321C 92.0263,324.026 94.3596,327.193 96.5,330.5C 95.1955,333.638 93.0288,335.971 90,337.5C 89.1464,340.592 87.6464,343.259 85.5,345.5C 84.1667,346.167 82.8333,346.833 81.5,347.5C 85.6905,342.969 89.0239,337.802 91.5,332C 90.217,328.148 88.5504,324.481 86.5,321C 84.2865,320.374 82.1199,320.541 80,321.5C 77.8958,323.279 75.5624,324.612 73,325.5C 66.5122,324.464 60.0122,324.464 53.5,325.5C 53.0679,322.123 53.7345,319.123 55.5,316.5 Z"/></g>
<g><path style="opacity:1" fill="#fee39d" d="M 61.5,308.5 C 61.6107,309.117 61.944,309.617 62.5,310C 76.0403,313.973 89.7069,316.806 103.5,318.5C 109.22,320.145 114.887,321.978 120.5,324C 123.482,324.498 126.482,324.665 129.5,324.5C 128.602,325.158 127.602,325.824 126.5,326.5C 127.867,327.84 129.2,329.173 130.5,330.5C 132.1,331.644 133.767,332.811 135.5,334C 144.242,335.195 152.908,336.695 161.5,338.5C 173.407,337.71 185.241,336.71 197,335.5C 198.062,336.097 199.228,336.43 200.5,336.5C 216.571,332.354 232.904,331.521 249.5,334C 251.645,338.489 255.145,340.989 260,341.5C 260.667,342.167 260.667,342.833 260,343.5C 258.59,344.787 257.09,345.954 255.5,347C 255.728,347.399 256.062,347.565 256.5,347.5C 254.97,349.346 252.97,350.346 250.5,350.5C 249.163,346.88 247.663,343.213 246,339.5C 244.509,337.996 242.676,337.163 240.5,337C 233.378,336.699 226.378,337.532 219.5,339.5C 218.446,339.32 217.446,338.987 216.5,338.5C 210.267,340.414 203.934,341.914 197.5,343C 185.781,343.229 174.114,344.063 162.5,345.5C 152.658,345.3 143.324,343.133 134.5,339C 132.393,337.736 131.393,335.903 131.5,333.5C 127.476,333.956 123.976,332.956 121,330.5C 117.575,330.673 115.409,332.34 114.5,335.5C 115.223,337.782 115.557,340.116 115.5,342.5C 114.279,341.972 113.113,341.305 112,340.5C 110.005,335.091 106.172,332.591 100.5,333C 97.0234,336.843 93.69,340.676 90.5,344.5C 88.8828,345.038 87.2161,345.371 85.5,345.5C 87.6464,343.259 89.1464,340.592 90,337.5C 93.0288,335.971 95.1955,333.638 96.5,330.5C 94.3596,327.193 92.0263,324.026 89.5,321C 83.8174,319.056 77.9841,317.556 72,316.5C 66.5294,317.382 61.0294,317.382 55.5,316.5C 56.3528,312.98 58.3528,310.313 61.5,308.5 Z"/></g>
<g><path style="opacity:1" fill="#feeab6" d="M 298.5,299.5 C 299.167,300.167 299.833,300.833 300.5,301.5C 297.865,305.468 294.865,309.135 291.5,312.5C 288.505,314.463 285.505,316.463 282.5,318.5C 281.954,319.772 281.621,321.106 281.5,322.5C 282.954,328.121 285.121,333.455 288,338.5C 291.428,353.025 292.261,367.692 290.5,382.5C 291.378,385.13 292.045,387.797 292.5,390.5C 291.833,390.5 291.5,390.833 291.5,391.5C 291.167,391.5 290.833,391.5 290.5,391.5C 288.83,379.596 287.996,367.596 288,355.5C 286.698,346.891 283.698,338.891 279,331.5C 277.967,326.106 278.967,321.106 282,316.5C 287.73,310.938 293.23,305.271 298.5,299.5 Z"/></g>
<g><path style="opacity:0.997" fill="#fdedc8" d="M 81.5,347.5 C 75.718,345.186 69.718,343.352 63.5,342C 61.6499,339.982 59.6499,338.149 57.5,336.5C 56.8165,336.863 56.1499,337.196 55.5,337.5C 53.9255,335.453 52.9255,333.119 52.5,330.5C 54.7843,329.323 55.1177,327.656 53.5,325.5C 60.0122,324.464 66.5122,324.464 73,325.5C 75.5624,324.612 77.8958,323.279 80,321.5C 82.1199,320.541 84.2865,320.374 86.5,321C 88.5504,324.481 90.217,328.148 91.5,332C 89.0239,337.802 85.6905,342.969 81.5,347.5 Z"/></g>
<g><path style="opacity:1" fill="#fee08e" d="M 294.5,294.5 C 294.938,294.435 295.272,294.601 295.5,295C 292.129,298.236 289.629,302.069 288,306.5C 280.214,312.983 274.714,321.15 271.5,331C 274.96,338.053 278.794,344.886 283,351.5C 284.115,365.219 285.615,378.886 287.5,392.5C 285.585,392.784 283.919,392.451 282.5,391.5C 280.349,381.563 278.516,371.563 277,361.5C 276.06,356.491 273.894,352.157 270.5,348.5C 268.787,348.879 267.787,349.879 267.5,351.5C 266.067,349.481 264.733,347.314 263.5,345C 261.078,345.31 258.745,346.143 256.5,347.5C 256.062,347.565 255.728,347.399 255.5,347C 257.09,345.954 258.59,344.787 260,343.5C 260.667,342.833 260.667,342.167 260,341.5C 255.145,340.989 251.645,338.489 249.5,334C 232.904,331.521 216.571,332.354 200.5,336.5C 199.228,336.43 198.062,336.097 197,335.5C 185.241,336.71 173.407,337.71 161.5,338.5C 152.908,336.695 144.242,335.195 135.5,334C 133.767,332.811 132.1,331.644 130.5,330.5C 141.253,332.653 152.086,334.32 163,335.5C 172.384,334.962 181.718,333.962 191,332.5C 202.793,334.075 214.459,333.409 226,330.5C 230.881,331.608 235.714,331.275 240.5,329.5C 248.137,330.602 255.803,330.768 263.5,330C 268.662,323.838 274.162,318.005 280,312.5C 282.525,309.297 284.691,305.797 286.5,302C 286.272,301.601 285.938,301.435 285.5,301.5C 288.19,298.815 291.19,296.482 294.5,294.5 Z"/></g>
<g><path style="opacity:1" fill="#fce6af" d="M 250.5,350.5 C 242.34,355.337 233.84,355.67 225,351.5C 222.503,352.249 220.003,352.916 217.5,353.5C 218.619,350.498 220.786,348.498 224,347.5C 224.402,346.128 224.902,344.795 225.5,343.5C 224.833,343.167 224.167,342.833 223.5,342.5C 212.527,345.536 201.527,347.536 190.5,348.5C 180.767,347.626 170.934,347.626 161,348.5C 155.839,347.94 150.673,347.44 145.5,347C 141.766,344.754 137.766,343.087 133.5,342C 129.288,337.06 123.954,334.56 117.5,334.5C 117.335,337.85 117.502,341.183 118,344.5C 120.173,345.933 122.34,347.266 124.5,348.5C 124.5,349.167 124.5,349.833 124.5,350.5C 123.167,350.167 121.833,349.833 120.5,349.5C 118.445,347.445 116.779,345.112 115.5,342.5C 115.557,340.116 115.223,337.782 114.5,335.5C 115.409,332.34 117.575,330.673 121,330.5C 123.976,332.956 127.476,333.956 131.5,333.5C 131.393,335.903 132.393,337.736 134.5,339C 143.324,343.133 152.658,345.3 162.5,345.5C 174.114,344.063 185.781,343.229 197.5,343C 203.934,341.914 210.267,340.414 216.5,338.5C 217.446,338.987 218.446,339.32 219.5,339.5C 226.378,337.532 233.378,336.699 240.5,337C 242.676,337.163 244.509,337.996 246,339.5C 247.663,343.213 249.163,346.88 250.5,350.5 Z"/></g>
<g><path style="opacity:0.904" fill="#0b0a08" d="M 81.5,347.5 C 82.8333,346.833 84.1667,346.167 85.5,345.5C 87.2161,345.371 88.8828,345.038 90.5,344.5C 90.6495,345.552 90.4828,346.552 90,347.5C 88.3775,348.099 86.8775,348.766 85.5,349.5C 83.2986,350.566 80.9653,351.233 78.5,351.5C 63.3586,340.494 57.1919,344.16 60,362.5C 61.8534,367.527 65.3534,370.527 70.5,371.5C 70.5,372.5 70.5,373.5 70.5,374.5C 72.099,374.768 73.4324,374.434 74.5,373.5C 76.2296,372.024 77.5629,372.358 78.5,374.5C 77.6602,375.735 76.6602,376.735 75.5,377.5C 67.827,377.054 60.1604,376.888 52.5,377C 47.9453,377.361 44.112,379.194 41,382.5C 40.0454,387.423 41.8788,390.923 46.5,393C 52.1569,393.499 57.8236,393.666 63.5,393.5C 63.5,394.833 63.5,396.167 63.5,397.5C 56.7783,397.71 50.1117,397.21 43.5,396C 41,394.833 39.1667,393 38,390.5C 35.3378,380.979 38.8378,375.479 48.5,374C 53.5,373.667 58.5,373.333 63.5,373C 59.8717,370.362 57.3717,366.862 56,362.5C 54.8041,356.016 55.6374,349.85 58.5,344C 56.7991,342.14 55.7991,339.973 55.5,337.5C 56.1499,337.196 56.8165,336.863 57.5,336.5C 59.6499,338.149 61.6499,339.982 63.5,342C 69.718,343.352 75.718,345.186 81.5,347.5 Z"/></g>
<g><path style="opacity:1" fill="#fcdd85" d="M 115.5,342.5 C 116.779,345.112 118.445,347.445 120.5,349.5C 118.833,349.5 117.167,349.5 115.5,349.5C 115.167,348.833 114.833,348.167 114.5,347.5C 111.272,343.958 107.272,341.625 102.5,340.5C 92.0361,346.695 86.0361,355.862 84.5,368C 85.3316,375.24 85.3316,382.573 84.5,390C 84.6448,390.772 84.9781,391.439 85.5,392C 87.1341,392.494 88.8008,392.66 90.5,392.5C 88.0521,393.473 85.3854,393.806 82.5,393.5C 81.341,382.674 81.1743,371.674 82,360.5C 83.0409,356.241 85.2076,352.741 88.5,350C 87.552,349.517 86.552,349.351 85.5,349.5C 86.8775,348.766 88.3775,348.099 90,347.5C 90.4828,346.552 90.6495,345.552 90.5,344.5C 93.69,340.676 97.0234,336.843 100.5,333C 106.172,332.591 110.005,335.091 112,340.5C 113.113,341.305 114.279,341.972 115.5,342.5 Z"/></g>
<g><path style="opacity:1" fill="#fce9bb" d="M 217.5,353.5 C 207.356,357.155 197.023,357.488 186.5,354.5C 182.268,356.114 177.934,357.447 173.5,358.5C 169.59,358.033 166.09,356.7 163,354.5C 150.554,358.481 139.054,356.648 128.5,349C 127.207,348.51 125.873,348.343 124.5,348.5C 122.34,347.266 120.173,345.933 118,344.5C 117.502,341.183 117.335,337.85 117.5,334.5C 123.954,334.56 129.288,337.06 133.5,342C 137.766,343.087 141.766,344.754 145.5,347C 150.673,347.44 155.839,347.94 161,348.5C 170.934,347.626 180.767,347.626 190.5,348.5C 201.527,347.536 212.527,345.536 223.5,342.5C 224.167,342.833 224.833,343.167 225.5,343.5C 224.902,344.795 224.402,346.128 224,347.5C 220.786,348.498 218.619,350.498 217.5,353.5 Z"/></g>
<g><path style="opacity:0.875" fill="#0c0a07" d="M 300.5,340.5 C 311.305,339.481 315.805,344.481 314,355.5C 312.505,364.987 307.339,371.487 298.5,375C 305.207,375.79 311.374,377.957 317,381.5C 319.506,386.639 318.339,390.806 313.5,394C 307.243,397.092 300.909,397.259 294.5,394.5C 291.765,395.559 288.931,396.225 286,396.5C 280.008,395.313 274.008,395.313 268,396.5C 256.444,395.923 252.11,389.923 255,378.5C 258.066,373.381 262.566,370.381 268.5,369.5C 266.303,362.704 263.803,356.038 261,349.5C 258.397,352.278 255.23,353.944 251.5,354.5C 242.339,358.058 233.005,358.391 223.5,355.5C 218.741,356.713 214.074,358.213 209.5,360C 206.183,360.498 202.85,360.665 199.5,360.5C 199.296,365.088 200.963,368.755 204.5,371.5C 205.167,371.833 205.833,372.167 206.5,372.5C 209.219,373.913 212.219,374.58 215.5,374.5C 224.315,376.213 232.648,374.88 240.5,370.5C 242.167,369.5 243.5,368.167 244.5,366.5C 245.931,365.22 246.598,363.553 246.5,361.5C 247.391,360.739 248.058,359.739 248.5,358.5C 249.325,357.614 250.325,357.281 251.5,357.5C 251.603,366.375 247.269,372.542 238.5,376C 226.404,380.325 214.404,379.992 202.5,375C 197.403,371.153 195.069,365.986 195.5,359.5C 192.398,359.846 189.565,359.179 187,357.5C 179.034,362.407 170.868,362.741 162.5,358.5C 148.383,362.262 135.716,359.595 124.5,350.5C 124.5,349.833 124.5,349.167 124.5,348.5C 125.873,348.343 127.207,348.51 128.5,349C 139.054,356.648 150.554,358.481 163,354.5C 166.09,356.7 169.59,358.033 173.5,358.5C 177.934,357.447 182.268,356.114 186.5,354.5C 197.023,357.488 207.356,357.155 217.5,353.5C 220.003,352.916 222.503,352.249 225,351.5C 233.84,355.67 242.34,355.337 250.5,350.5C 252.97,350.346 254.97,349.346 256.5,347.5C 258.745,346.143 261.078,345.31 263.5,345C 264.733,347.314 266.067,349.481 267.5,351.5C 268.128,356.428 269.628,361.095 272,365.5C 272.497,367.81 272.663,370.143 272.5,372.5C 269.933,372.721 267.599,373.388 265.5,374.5C 257.705,377.761 255.872,383.094 260,390.5C 262.077,391.958 264.41,392.624 267,392.5C 269.848,392.202 272.681,391.869 275.5,391.5C 277.833,391.5 280.167,391.5 282.5,391.5C 283.919,392.451 285.585,392.784 287.5,392.5C 288.609,392.443 289.609,392.11 290.5,391.5C 290.833,391.5 291.167,391.5 291.5,391.5C 297.159,392.2 302.825,392.366 308.5,392C 311.847,391.32 313.847,389.32 314.5,386C 313.846,384.013 312.513,382.68 310.5,382C 305.598,380.358 300.598,379.191 295.5,378.5C 293.554,377.746 292.721,376.412 293,374.5C 295.382,372.611 297.882,370.945 300.5,369.5C 306.903,365.374 310.237,359.374 310.5,351.5C 310.477,346.973 308.143,344.473 303.5,344C 302.364,342.855 301.364,341.688 300.5,340.5 Z"/></g>
<g><path style="opacity:1" fill="#f9f1df" d="M 299.5,340.5 C 299.833,340.5 300.167,340.5 300.5,340.5C 301.364,341.688 302.364,342.855 303.5,344C 308.143,344.473 310.477,346.973 310.5,351.5C 310.237,359.374 306.903,365.374 300.5,369.5C 300.725,359.801 300.392,350.134 299.5,340.5 Z"/></g>
<g><path style="opacity:1" fill="#f9e9c3" d="M 78.5,351.5 C 75.2618,358.46 73.9284,365.793 74.5,373.5C 73.4324,374.434 72.099,374.768 70.5,374.5C 70.5,373.5 70.5,372.5 70.5,371.5C 65.3534,370.527 61.8534,367.527 60,362.5C 57.1919,344.16 63.3586,340.494 78.5,351.5 Z"/></g>
<g><path style="opacity:0.863" fill="#0e0b06" d="M 114.5,347.5 C 114.833,348.167 115.167,348.833 115.5,349.5C 114.264,351.043 112.598,352.043 110.5,352.5C 109.547,354.908 108.213,357.075 106.5,359C 103.588,360.373 100.754,361.873 98,363.5C 97.3333,364.833 97.3333,366.167 98,367.5C 100.585,372.168 102.752,377.002 104.5,382C 104.234,388.923 100.901,393.589 94.5,396C 86.1038,398.316 77.7704,398.816 69.5,397.5C 69.427,395.973 70.0937,394.973 71.5,394.5C 75.3714,394.815 79.0381,394.482 82.5,393.5C 85.3854,393.806 88.0521,393.473 90.5,392.5C 92.099,392.768 93.4324,392.434 94.5,391.5C 96.0174,391.489 97.1841,390.823 98,389.5C 99.233,387.134 100.066,384.634 100.5,382C 98.4761,377.452 96.3094,372.952 94,368.5C 93.2478,362.226 96.0811,358.393 102.5,357C 104.733,354.004 107.066,351.171 109.5,348.5C 111.042,347.699 112.708,347.366 114.5,347.5 Z"/></g>
<g><path style="opacity:1" fill="#fee39c" d="M 85.5,349.5 C 86.552,349.351 87.552,349.517 88.5,350C 85.2076,352.741 83.0409,356.241 82,360.5C 81.1743,371.674 81.341,382.674 82.5,393.5C 79.0381,394.482 75.3714,394.815 71.5,394.5C 74.0053,389.151 75.3386,383.484 75.5,377.5C 76.6602,376.735 77.6602,375.735 78.5,374.5C 77.5629,372.358 76.2296,372.024 74.5,373.5C 73.9284,365.793 75.2618,358.46 78.5,351.5C 80.9653,351.233 83.2986,350.566 85.5,349.5 Z"/></g>
<g><path style="opacity:1" fill="#fed96e" d="M 114.5,347.5 C 112.708,347.366 111.042,347.699 109.5,348.5C 108.256,345.211 105.922,344.044 102.5,345C 96.0906,349.078 92.5906,354.912 92,362.5C 91.7192,372.231 91.5526,381.898 91.5,391.5C 92.5,391.5 93.5,391.5 94.5,391.5C 93.4324,392.434 92.099,392.768 90.5,392.5C 88.8008,392.66 87.1341,392.494 85.5,392C 84.9781,391.439 84.6448,390.772 84.5,390C 85.3316,382.573 85.3316,375.24 84.5,368C 86.0361,355.862 92.0361,346.695 102.5,340.5C 107.272,341.625 111.272,343.958 114.5,347.5 Z"/></g>
<g><path style="opacity:1" fill="#fedb77" d="M 246.5,361.5 C 246.598,363.553 245.931,365.22 244.5,366.5C 240.555,365.85 236.722,364.517 233,362.5C 229.861,361.574 226.694,361.408 223.5,362C 219.725,363.387 216.058,365.054 212.5,367C 210.971,369.431 208.971,371.264 206.5,372.5C 205.833,372.167 205.167,371.833 204.5,371.5C 205.242,369.574 206.242,367.741 207.5,366C 211.81,364.512 215.81,362.512 219.5,360C 222.311,359.371 225.144,358.871 228,358.5C 234.252,359.802 240.418,360.802 246.5,361.5 Z"/></g>
<g><path style="opacity:1" fill="#fcd35c" d="M 244.5,366.5 C 243.5,368.167 242.167,369.5 240.5,370.5C 240.144,369.13 239.31,368.13 238,367.5C 232.903,365.93 227.737,365.097 222.5,365C 219.203,367.295 216.203,369.962 213.5,373C 214.416,373.278 215.082,373.778 215.5,374.5C 212.219,374.58 209.219,373.913 206.5,372.5C 208.971,371.264 210.971,369.431 212.5,367C 216.058,365.054 219.725,363.387 223.5,362C 226.694,361.408 229.861,361.574 233,362.5C 236.722,364.517 240.555,365.85 244.5,366.5 Z"/></g>
<g><path style="opacity:1" fill="#fdd76c" d="M 282.5,391.5 C 280.167,391.5 277.833,391.5 275.5,391.5C 275.002,388.513 274.502,385.513 274,382.5C 271.725,380.134 269.559,377.634 267.5,375C 266.906,374.536 266.239,374.369 265.5,374.5C 267.599,373.388 269.933,372.721 272.5,372.5C 272.663,370.143 272.497,367.81 272,365.5C 269.628,361.095 268.128,356.428 267.5,351.5C 267.787,349.879 268.787,348.879 270.5,348.5C 273.894,352.157 276.06,356.491 277,361.5C 278.516,371.563 280.349,381.563 282.5,391.5 Z"/></g>
<g><path style="opacity:1" fill="#f7db8f" d="M 251.5,354.5 C 251.5,355.5 251.5,356.5 251.5,357.5C 250.325,357.281 249.325,357.614 248.5,358.5C 248.058,359.739 247.391,360.739 246.5,361.5C 240.418,360.802 234.252,359.802 228,358.5C 225.144,358.871 222.311,359.371 219.5,360C 215.81,362.512 211.81,364.512 207.5,366C 206.242,367.741 205.242,369.574 204.5,371.5C 200.963,368.755 199.296,365.088 199.5,360.5C 202.85,360.665 206.183,360.498 209.5,360C 214.074,358.213 218.741,356.713 223.5,355.5C 233.005,358.391 242.339,358.058 251.5,354.5 Z"/></g>
<g><path style="opacity:1" fill="#fccc3e" d="M 240.5,370.5 C 232.648,374.88 224.315,376.213 215.5,374.5C 215.082,373.778 214.416,373.278 213.5,373C 216.203,369.962 219.203,367.295 222.5,365C 227.737,365.097 232.903,365.93 238,367.5C 239.31,368.13 240.144,369.13 240.5,370.5 Z"/></g>
<g><path style="opacity:1" fill="#fbd052" d="M 109.5,348.5 C 107.066,351.171 104.733,354.004 102.5,357C 96.0811,358.393 93.2478,362.226 94,368.5C 96.3094,372.952 98.4761,377.452 100.5,382C 100.066,384.634 99.233,387.134 98,389.5C 97.1841,390.823 96.0174,391.489 94.5,391.5C 93.5,391.5 92.5,391.5 91.5,391.5C 91.5526,381.898 91.7192,372.231 92,362.5C 92.5906,354.912 96.0906,349.078 102.5,345C 105.922,344.044 108.256,345.211 109.5,348.5 Z"/></g>
<g><path style="opacity:1" fill="#f7e7c1" d="M 75.5,377.5 C 75.3386,383.484 74.0053,389.151 71.5,394.5C 70.0937,394.973 69.427,395.973 69.5,397.5C 67.5,397.5 65.5,397.5 63.5,397.5C 63.5,396.167 63.5,394.833 63.5,393.5C 57.8236,393.666 52.1569,393.499 46.5,393C 41.8788,390.923 40.0454,387.423 41,382.5C 44.112,379.194 47.9453,377.361 52.5,377C 60.1604,376.888 67.827,377.054 75.5,377.5 Z"/></g>
<g><path style="opacity:1" fill="#fac938" d="M 265.5,374.5 C 266.239,374.369 266.906,374.536 267.5,375C 269.559,377.634 271.725,380.134 274,382.5C 274.502,385.513 275.002,388.513 275.5,391.5C 272.681,391.869 269.848,392.202 267,392.5C 264.41,392.624 262.077,391.958 260,390.5C 255.872,383.094 257.705,377.761 265.5,374.5 Z"/></g>
<g><path style="opacity:1" fill="#f6eede" d="M 295.5,378.5 C 300.598,379.191 305.598,380.358 310.5,382C 312.513,382.68 313.846,384.013 314.5,386C 313.847,389.32 311.847,391.32 308.5,392C 302.825,392.366 297.159,392.2 291.5,391.5C 291.5,390.833 291.833,390.5 292.5,390.5C 293.833,390.5 295.167,390.5 296.5,390.5C 295.838,386.534 295.505,382.534 295.5,378.5 Z"/></g>
</svg>
