<svg xmlns="http://www.w3.org/2000/svg" width="111.35" height="34.928" viewBox="0 0 111.35 34.928"><path d="M210.119,1194.726c-.015-.115-.031-.229-.046-.344l-1.653,1.271c1.154.8,2.619,1.531,4.012.907,1.24-.555,1.752-1.771,2.629-2.715.9-.968,1.353.284,2.2.742,1.218.657,2.4-.083,3.185-1.04.35-.426.574-1.033.954-1.421.523-.534,1.389-.262,2.074-.288a11.753,11.753,0,0,0,4.787-1.451c1.646-.823,3.307-1.9,5.191-2a11.488,11.488,0,0,0,2.757-.257,12.945,12.945,0,0,1,2.8-.724,23.357,23.357,0,0,0,5.795-1.286c2.1-.707,4.306-1.053,6.44-1.647,1.932-.537,3.755-1.6,5.74-1.915a19.459,19.459,0,0,0,2.926-.538c.951-.3,1.876-.679,2.816-1.012,2.094-.74,4.169-1.541,6.286-2.214,2.09-.666,4.235-1.138,6.338-1.76,4.266-1.26,8.463-2.735,12.738-3.967,10.141-2.924,20.223-6.046,30.361-8.979a1.126,1.126,0,0,0-.6-2.169c-8.792,2.543-17.542,5.228-26.325,7.8-4.25,1.246-8.484,2.511-12.7,3.871-4.169,1.345-8.456,2.306-12.585,3.765q-2.87,1.014-5.725,2.069c-1.928.715-3.966.735-5.879,1.441a50.63,50.63,0,0,1-5.784,1.885c-2.016.484-3.98.982-5.943,1.651-1.887.643-3.772.539-5.678.986a14.574,14.574,0,0,1-2.755.731,11.748,11.748,0,0,0-2.944.321,29.659,29.659,0,0,0-4.572,2.086,10.818,10.818,0,0,1-2.483.928,23.319,23.319,0,0,1-2.68.132c-1.548.158-2.065,1.122-2.881,2.269-.17.239-.446.7-.75.761.255-.05-.091-.229-.255-.376a4.093,4.093,0,0,0-1.483-.985c-1.417-.438-2.573.466-3.389,1.526-.377.49-.764,1.289-1.316,1.613-.723.423-1.571-.268-2.17-.685-.911-.634-1.769.412-1.653,1.27.015.115.031.229.046.344.193,1.428,2.361.82,2.17-.6" transform="translate(-207.892 -1161.867)"/></svg>