<svg xmlns="http://www.w3.org/2000/svg" width="98.292" height="9.923" viewBox="0 0 98.292 9.923"><path d="M212.892,1444a15.011,15.011,0,0,0,4.029-1.411,9.423,9.423,0,0,0,1.822-1.278,4.444,4.444,0,0,1,2.328-1.139,26.18,26.18,0,0,0,3.992-1.4c1.24-.481,2.972-1.218,4.278-.632.6.268,1.021.845,1.6,1.167a7.913,7.913,0,0,0,1.591.613,15.572,15.572,0,0,0,4.667.532c1.374-.007,2.844.617,4.2.247.6-.162,1.126-.5,1.709-.7a26.507,26.507,0,0,1,3.251-.67,10.065,10.065,0,0,1,4.378-.257,9.592,9.592,0,0,0,4.258-.227,14.394,14.394,0,0,1,5.19.035,12.812,12.812,0,0,0,4.449.021,11.579,11.579,0,0,1,2.22-.246,13.2,13.2,0,0,0,2.483,0c.643-.107,1.254-.332,1.889-.468a10.031,10.031,0,0,1,2.608-.117c3.578.168,7.124-.491,10.7-.686,4.042-.22,8.067-.554,12.118-.536a75.382,75.382,0,0,0,12.315-.551c1.426-.228.821-2.4-.6-2.17a68,68,0,0,1-11.235.474c-3.647-.024-7.268.2-10.9.432-1.687.107-3.387.12-5.07.27-1.874.166-3.716.608-5.605.6a23.415,23.415,0,0,0-4.54.037c-.639.119-1.249.362-1.887.478-1.054.191-2.1-.085-3.155.015a24.45,24.45,0,0,1-3.992.465c-1.742-.12-3.409-.543-5.174-.5-1.474.038-2.865.613-4.315.653-1.579.044-2.952-.582-4.573-.337a48.426,48.426,0,0,0-4.943,1c-.617.162-1.151.453-1.746.663a4.311,4.311,0,0,1-2.293-.079c-1.572-.216-3.153.07-4.714-.265a7.9,7.9,0,0,1-2.142-.661c-.624-.347-1.066-.931-1.717-1.245-2.825-1.364-5.943.689-8.563,1.56-.906.3-1.874.354-2.766.7a6.437,6.437,0,0,0-1.878,1.346,10.655,10.655,0,0,1-4.858,2.11c-1.417.294-.817,2.463.6,2.17" transform="translate(-211.485 -1434.102)"/></svg>