<svg xmlns="http://www.w3.org/2000/svg" width="114.264" height="7.026" viewBox="0 0 114.264 7.026"><path d="M203.9,1058.237c1.337-1.5,4.444-1.168,6.246-1.03,1.169.089,2.3.342,3.46.5,1.859.248,3.732.251,5.6.353,1.915.1,3.8.421,5.725.423a53.139,53.139,0,0,0,5.524-.367c3.888-.4,7.783-.728,11.683-1,15.538-1.087,31.117-1.536,46.664-2.484q13.185-.806,26.384-.806a1.126,1.126,0,0,0,0-2.25c-16.006.007-31.925,1.3-47.906,1.984-8.056.343-16.112.692-24.157,1.238-3.915.266-7.831.563-11.735.971-1.841.192-3.683.4-5.535.451-2.078.059-4.094-.247-6.16-.381a61.273,61.273,0,0,1-6.441-.442,31.3,31.3,0,0,0-3.686-.474c-2.3-.12-5.579-.158-7.259,1.727-.961,1.078.625,2.675,1.591,1.591" transform="translate(-202.011 -1051.572)"/></svg>