<svg xmlns="http://www.w3.org/2000/svg" width="132.705" height="22.961" viewBox="0 0 132.705 22.961"><path d="M204.189,773.085c.12-.454,1.4-.532,1.787-.607,1.067-.21,2.1-.533,3.152-.823,2.349-.648,4.768-.713,7.114-1.365,4.774-1.326,9.635-2.238,14.5-3.17q1.742-.335,3.477-.7c1.219-.26,2.485-.288,3.691-.59.921-.23,1.881-.814,2.854-.689,1.065.136,2.01.816,3.07,1.013,2.3.43,4.241-.347,6.393-.992.834-.249,1.845-.539,2.483.2a4.4,4.4,0,0,1,.792,2.246,2.1,2.1,0,0,0,3.07,1.57c1.189-.623,1.606-1.978,2.553-2.843.261-.239.773-.756,1.175-.723.263.021.632.374.887.475a6.494,6.494,0,0,0,2.609.272c.936-.039,1.883-.093,2.816-.17,1.044-.086,2.032-.408,3.079-.485a45.491,45.491,0,0,0,7.147-1.464c2.517-.6,5.032-1.21,7.566-1.735,5.217-1.08,10.46-2.026,15.69-3.034,5.659-1.09,11.218-2.42,16.81-3.794,2.723-.669,5.5-1.023,8.245-1.6,2.869-.6,5.832-.413,8.718-.962,1.421-.271.819-2.44-.6-2.17-2.576.491-5.208.331-7.785.78-2.53.44-5.1.873-7.61,1.416-2.479.536-4.908,1.272-7.371,1.87-2.605.633-5.24,1.153-7.869,1.675-5.306,1.055-10.631,2.01-15.938,3.063-5.225,1.037-10.363,2.456-15.582,3.5-1.12.224-2.265.2-3.382.443a20.745,20.745,0,0,1-3.017.355,6.864,6.864,0,0,1-2.635-.028c-.849-.313-1.366-.825-2.365-.595-1.548.357-2.558,1.666-3.42,2.887a6.942,6.942,0,0,0-.537.676.693.693,0,0,1-.247.206c.337-.214.077.281.161-.188a4.329,4.329,0,0,0-.768-2.364,3.721,3.721,0,0,0-4.207-1.907c-2.331.394-4.355,1.79-6.814,1.119a26.449,26.449,0,0,0-2.7-.913,6.037,6.037,0,0,0-2.967.435,20.245,20.245,0,0,1-3.243.594c-1.383.224-2.752.574-4.127.843-2.751.538-5.495,1.095-8.242,1.654-1.4.284-2.812.48-4.191.851-1.282.344-2.542.772-3.835,1.078-1.389.327-2.814.343-4.211.628s-2.735.748-4.11,1.089c-1.586.394-3.732.47-4.237,2.372a1.126,1.126,0,0,0,2.17.6" transform="translate(-201.977 -750.922)"/></svg>