<svg xmlns="http://www.w3.org/2000/svg" width="130.365" height="23.548" viewBox="0 0 130.365 23.548"><path d="M208.239,918.281c1.5,1.313,3.72,1.552,5.516,2.325a32.337,32.337,0,0,0,6.061,1.595c2.271.494,4.58.629,6.844,1.115,2.347.5,4.739.455,7.093.866,1.159.2,2.279.572,3.437.786,1.208.223,2.429.368,3.643.554,2.2.336,4.308,1.12,6.523,1.35,1.108.116,2.223.063,3.334.187,1.168.131,2.326.33,3.5.41,2.442.166,4.747.784,7.16,1.117a24.349,24.349,0,0,0,3.032.083,26.756,26.756,0,0,1,3.639.49c2.324.348,4.656-.058,6.984.279,2.2.318,4.4.705,6.608.981a30.983,30.983,0,0,0,3.255.035,37.127,37.127,0,0,1,3.8.447,24.573,24.573,0,0,1,7.094,1.618c1.808.811,3.472,2.119,5.39,2.657,2.017.566,4.116-.2,5.987-.933.927-.363,1.895-.707,2.8-1.128a2.411,2.411,0,0,0,.469-.121c-.243.175-.365-.495-.316-.015.023.225.364.58.51.75,1.219,1.414,3.264,1.677,5.014,1.841,1.024.1,2.067.091,3.084.25a18.645,18.645,0,0,1,3.4,1.065,12.2,12.2,0,0,0,3.421.763c1.356.082,2.715-.112,4.07-.023,2.579.168,4.748,1.777,7.248,2.294,1.413.295,2.018-1.875.6-2.168-2.061-.428-3.85-1.588-5.881-2.1-2.329-.584-4.727.106-7.045-.386-1.987-.423-3.764-1.45-5.8-1.7-1.772-.217-3.7-.055-5.4-.689-1.158-.432-1.382-1.872-2.6-2.1a3.619,3.619,0,0,0-1.958.383c-1.081.427-2.143.9-3.241,1.288a8.343,8.343,0,0,1-3.012.674,7.433,7.433,0,0,1-3.081-1.249,23.322,23.322,0,0,0-5.53-2.377,65.171,65.171,0,0,0-6.968-1.076c-2.319-.319-4.6-.142-6.916-.551a50.641,50.641,0,0,0-6.724-.863c-1.126-.043-2.251.09-3.377.068a29.539,29.539,0,0,1-3.684-.5,18.556,18.556,0,0,0-2.9-.146,17.1,17.1,0,0,1-3.672-.457c-2.264-.467-4.5-.612-6.782-.883-1.021-.121-2.036-.293-3.061-.369a26.086,26.086,0,0,1-3.711-.325c-2.253-.489-4.439-1-6.725-1.342-2.588-.383-5.063-1.142-7.68-1.357-2.657-.22-5.235-.775-7.884-1.04a48.146,48.146,0,0,1-7.17-1.416,31.678,31.678,0,0,1-3.444-1.3c-1.046-.407-2.5-.5-3.365-1.252-1.085-.951-2.683.635-1.591,1.59" transform="translate(-207.873 -916.398)"/></svg>