<svg xmlns="http://www.w3.org/2000/svg" width="207.953" height="13.522" viewBox="0 0 207.953 13.522"><g transform="translate(-640.418 -4953.186)"><path d="M204.883,1308.233a23.749,23.749,0,0,1,5.263,1.04,21.727,21.727,0,0,0,5.354.74c1.859.027,3.643.387,5.482.577a52.988,52.988,0,0,0,5.665.009c2.014-.006,4,.336,6,.51,2.072.18,4.166.119,6.243.106,3.99-.023,8-.24,11.99-.113a36.128,36.128,0,0,1,5.8.742A40.49,40.49,0,0,1,261.9,1313c1.679.564,3.118,1.635,4.821,2.152a9.076,9.076,0,0,0,4.871-.239c.884-.2,1.792-.2,2.689-.328a26.165,26.165,0,0,1,2.885-.368,3.353,3.353,0,0,1,2.4.71,19.86,19.86,0,0,0,1.6,1.469c2.249,1.525,5.417.856,7.946.749a27.705,27.705,0,0,0,5.811-.824,51.019,51.019,0,0,1,6.237-1.128,22.38,22.38,0,0,1,5.5-.261c1.418.156,2.752-.037,3.56-1.328.771-1.23-1.175-2.361-1.943-1.135-.458.731-2.5.051-3.223.03a45.378,45.378,0,0,0-5.726.618,33.751,33.751,0,0,0-5,1.035,26.376,26.376,0,0,1-5.36.749c-1.342.067-2.68.223-4.024.187a4.421,4.421,0,0,1-3.417-1.4c-2.623-2.543-5.938-1.506-9.2-1.174-1.712.174-3.281.988-5.007.466-1.693-.512-3.139-1.59-4.821-2.152a34.081,34.081,0,0,0-4.58-1.037,49.034,49.034,0,0,0-5.65-.877c-3.884-.266-7.813.014-11.7.036-1.92.011-3.84.036-5.759.006s-3.828-.312-5.749-.491c-2.12-.2-4.22-.012-6.342-.039-2.052-.025-4.052-.517-6.1-.63a28.97,28.97,0,0,1-6.08-.752,25.321,25.321,0,0,0-5.657-1.066c-1.448-.049-1.446,2.2,0,2.25" transform="translate(436.62 3647.203)"/><path d="M316.966,1315.942c2.977.046,5.886.6,8.876.585,3.209-.013,6.418.008,9.627.008,6.1,0,12.273-.385,18.315.5,1.454.213,2.908.087,4.367.171,1.508.088,2.949.489,4.473.509,1.429.018,2.829,0,4.252.156,1.484.163,2.957.4,4.451.456,6.116.248,12.294-.016,18.417-.016,3.62,0,7.26-.129,10.877-.006,1.785.061,3.571.265,5.342.489a29.68,29.68,0,0,0,4.7.7c1.443-.054,1.451-2.3,0-2.25a24.974,24.974,0,0,1-4.071-.623c-1.574-.21-3.159-.392-4.742-.506-3.194-.231-6.431-.057-9.631-.058-6.183,0-12.365.046-18.547.048-2.971,0-5.862-.555-8.818-.645a30.208,30.208,0,0,1-4.3-.16,27.794,27.794,0,0,0-4.565-.372,40.77,40.77,0,0,1-4.252-.477,41.089,41.089,0,0,0-4.721-.213c-3.042,0-6.084.041-9.126.041-3.6,0-7.2-.011-10.807-.01a49.518,49.518,0,0,1-5.212-.11c-1.639-.174-3.257-.448-4.91-.473a1.126,1.126,0,0,0,0,2.25" transform="translate(436.62 3647.203)"/></g></svg>