<svg xmlns="http://www.w3.org/2000/svg" width="129.097" height="5.213" viewBox="0 0 129.097 5.213"><path d="M211.7,1569.127c.628.13,1.158.615,1.822.569a1.641,1.641,0,0,0,1.356-.942l-.672.517a19.121,19.121,0,0,1,2.82-.721c1.067-.061,2.138.032,3.206.038,2.174.014,4.315-.375,6.477-.536a30.957,30.957,0,0,1,6.154.435,15.105,15.105,0,0,0,5.978-.588c1.586-.429,3.126-.878,4.625-.074a3.537,3.537,0,0,0,1.622.636,5.241,5.241,0,0,0,1.8-.644c1.046-.442,1.873-.828,2.975-.286a7.321,7.321,0,0,0,2.152.9,3.921,3.921,0,0,0,2.168-.307c.851-.372,1.7-1.261,2.653-1.305a4.111,4.111,0,0,1,2.126.917,6.572,6.572,0,0,0,2.178.919c1.794.331,3.639-.074,5.446-.081,4.5-.017,9.019-.117,13.515.034,4.565.154,9.092.795,13.647,1.082a99.056,99.056,0,0,0,13.8-.529c10.441-.784,20.918-.947,31.357-1.773,1.434-.113,1.446-2.364,0-2.25-9.624.762-19.279.96-28.91,1.6-4.695.312-9.377.968-14.09.809s-9.4-.842-14.118-1.111c-4.73-.27-9.5-.112-14.233-.112-1.882,0-3.922.428-5.782.16-1.626-.234-2.76-1.707-4.431-1.893a4.14,4.14,0,0,0-2.3.45c-.908.447-1.778,1.4-2.874,1.135-.775-.19-1.428-.805-2.206-1.038a4.379,4.379,0,0,0-2.629.09,17.675,17.675,0,0,1-2.35.972c-.226.037.233.011.22.007a3.777,3.777,0,0,1-.6-.324c-.306-.165-.609-.343-.931-.478-1.55-.647-3.47-.194-5.026.216a17.991,17.991,0,0,1-3.372.732,17.031,17.031,0,0,1-3.6-.291,26.8,26.8,0,0,0-7.185-.034c-2.507.287-4.953.14-7.457.272a11.562,11.562,0,0,0-3.026.722,2.7,2.7,0,0,0-.661.192c-.218.136-.535.761-.121.286.3-.343.325.007-.015-.258a2.547,2.547,0,0,0-.906-.285c-1.413-.292-2.017,1.876-.6,2.17" transform="translate(-210.891 -1564.568)"/></svg>